<svg width="184" height="26" viewBox="0 0 184 26" fill="none" xmlns="http://www.w3.org/2000/svg">
<path fill-rule="evenodd" clip-rule="evenodd" d="M48.8339 10.666C40.9624 8.38381 31.8743 6.11264 23.1316 5.54553C15.659 5.0615 8.44111 5.8133 2.5332 9.01202C1.70039 9.46241 0.657498 9.15278 0.20711 8.31929C-0.243965 7.48649 0.0663603 6.44356 0.899166 5.99249C7.34397 2.50404 15.2024 1.59158 23.3533 2.12024C32.2533 2.69696 41.5055 4.98326 49.5349 7.29837C50.4666 5.41099 52.3958 3.65132 55.7943 2.35302C61.0143 0.358544 68.1415 0.383264 75.6498 1.50717C86.5395 3.1364 98.2537 7.02167 105.785 9.78235C106.094 9.89495 106.554 10.0741 107.117 10.3103C107.289 9.93133 107.481 9.55783 107.694 9.1912C109.541 5.99592 112.809 3.41238 116.139 2.48963C137.258 -3.36129 161.905 3.64926 181.974 9.35463C182.88 9.61347 183.409 10.5636 183.155 11.4747C182.894 12.3858 181.946 12.9151 181.033 12.6563C161.528 7.11022 137.58 0.112757 117.052 5.79822C114.525 6.49852 112.067 8.48405 110.667 10.909C110.509 11.1795 110.372 11.4562 110.241 11.737C113.008 13.1081 116.262 15.0195 118.013 17.0654C119.812 19.1629 120.258 21.4018 118.693 23.5164C117.347 25.3241 115.308 25.4779 113.187 24.5408C110.9 23.537 108.545 21.1904 107.783 20.0891C106.355 18.0322 105.902 15.8008 106.163 13.6251C105.49 13.3408 104.944 13.1294 104.607 13.0058C97.2396 10.3062 85.7897 6.49573 75.1418 4.90221C68.2905 3.87648 61.7826 3.73988 57.0192 5.55928C54.9876 6.33579 53.6453 7.24203 52.9169 8.29385C54.3546 8.72365 55.7408 9.14658 57.0652 9.55028C59.6844 10.3488 65.1378 11.6704 69.0341 14.026C72.1326 15.899 74.2335 18.4468 74.1113 21.6407C74.0488 23.2816 73.0992 24.3767 71.5881 24.9905C69.33 25.9071 65.4248 25.4636 63.9706 25.1546C59.5601 24.2195 53.6735 20.3486 50.7611 15.9869C49.5987 14.2464 48.9074 12.4256 48.8339 10.666ZM52.4569 11.7384C53.703 12.1132 54.9073 12.4813 56.0641 12.8341C58.509 13.5798 63.6198 14.7641 67.2579 16.9639C69.1844 18.1283 70.7574 19.5234 70.6811 21.5096C70.675 21.6641 70.5219 21.708 70.3866 21.7712C70.1772 21.868 69.9376 21.9346 69.6822 21.9868C67.9541 22.3397 65.6328 21.9985 64.6826 21.7966C60.982 21.0119 56.0593 17.7404 53.6158 14.0803C53.0995 13.3072 52.6883 12.5197 52.4569 11.7384ZM109.555 15.2055C111.168 16.0356 112.857 17.0394 114.189 18.1317C114.896 18.7119 115.493 19.3085 115.871 19.9277C116.187 20.4399 116.31 20.9645 115.933 21.4712C115.782 21.6765 115.555 21.6806 115.322 21.6421C115.075 21.6009 114.821 21.5131 114.567 21.3998C112.891 20.6624 111.161 18.9398 110.605 18.1317C109.953 17.1945 109.63 16.2031 109.555 15.2055Z" fill="white"/>
</svg>
