<svg width="1658" height="1654" viewBox="0 0 1658 1654" fill="none" xmlns="http://www.w3.org/2000/svg">
<path fill-rule="evenodd" clip-rule="evenodd" d="M1049.76 603.372C1049.86 582.037 1087.49 558.045 1103.57 545.676C1135.36 521.211 1168.42 498.62 1201.17 475.667C1233.93 452.714 1266.77 429.824 1298 404.625C1318.28 388.268 1342.11 369.845 1355.87 346.488C1385.17 296.713 1292.79 304.104 1268.86 303.016C1207.98 300.234 1138.16 301.504 1081.1 275.583C1047.03 260.109 1033.45 234.158 1040.77 196.335C1043.13 184.034 1050.11 169.879 1044.19 157.896C1037.88 145.098 1023.35 137.712 1011.3 132.76C967.323 114.716 916.765 112.625 870.239 110.361C820.07 107.872 769.429 108.6 719.614 108.407C698.491 108.326 676.43 100.319 656.316 93.8104C629.946 85.2802 603.888 75.6985 577.737 66.4341C520.204 46.1009 460.921 24.6851 400.052 19.521C361.933 16.2856 320.27 20.6596 290.658 48.8012C275.79 62.9312 268.008 83.9363 259.413 102.596C249.008 125.138 239.015 147.897 227.938 170.085C192.253 241.543 141.306 311.372 58.6123 314.881C46.1024 315.41 33.8165 313.686 21.3656 313.363C13.4364 313.164 6.3797 315.186 3.43204 323.94C-3.97838 345.897 19.314 380.559 28.8645 397.98C49.7752 436.114 73.3565 472.537 95.4462 509.906C110.061 534.62 135.358 568.392 135.623 598.419C135.859 625.173 102.137 644.511 83.7794 657.689C66.5768 670.027 35.4083 687.293 33.5218 712.392C32.608 724.562 40.2129 734.647 48.1539 742.475C62.0728 756.163 78.1081 765.819 90.6298 781.436C111.163 807.058 128.319 842.311 125.53 876.836C123.596 900.76 110.662 916.426 94.2082 931.403C87.293 937.699 81.6807 942.154 81.3152 952.377C80.7256 968.61 86.7506 985.788 91.7145 1000.84C109.471 1054.7 134.691 1106.79 162.747 1155.42C176.766 1179.72 191.911 1203.95 210.499 1224.68C222.673 1238.29 239.092 1254.49 257.662 1254.47C279.162 1254.47 301.912 1246.29 322.811 1240.16C361.844 1228.72 400.405 1215.49 438.813 1201.92C527.636 1170.53 615.624 1136.59 702.777 1100.11C764.165 1074.37 826.855 1048.59 884.571 1014.37C895.826 1007.65 906.45 999.816 916.299 990.971C926.822 981.682 939.881 977.525 953.121 974.427C1035.3 955.195 1125.34 969.96 1207.86 979.218C1228.8 981.563 1249.75 983.922 1270.76 985.564C1288.81 986.977 1310.43 991.027 1327.98 984.942C1362.56 972.965 1332.33 928.82 1319.55 910.833C1274.55 847.5 1216.5 793.917 1162.68 739.214C1137.1 713.163 1111.32 687.181 1087.12 659.655C1074.52 645.344 1049.68 622.075 1049.76 603.372Z" stroke="white" stroke-opacity="0.03" stroke-width="3"/>
<path fill-rule="evenodd" clip-rule="evenodd" d="M1034.26 599.775C1048.05 577.199 1072.25 560.513 1092.34 544.81C1121.24 522.203 1151.06 500.853 1180.42 478.887C1208.19 458.115 1236.02 437.107 1261.74 413.517C1277.42 399.132 1297.09 381.93 1304.52 360.655C1320.63 314.54 1233.96 321.536 1212.56 320.33C1159.36 317.344 1099.06 316.66 1049.84 292.381C1019.11 277.218 1006.49 252.074 1013.04 217.166C1015.31 205.089 1019.39 194.777 1014.22 182.762C1008.25 168.856 994.501 160.186 981.9 154.067C942.427 134.893 895.769 130.82 852.981 127.43C808.777 123.929 762.721 121.46 719.938 124.022C702.83 125.042 683.138 119.252 666.207 114.812C640.155 107.97 614.369 100.078 588.447 92.7397C535.766 77.8138 481.716 63.4351 426.911 61.7995C387.344 60.6179 346.09 67.0236 313.171 91.782C279.81 116.889 265.009 155.808 246.509 192.806C214.558 256.77 171.404 334.54 97.4847 348.055C86.276 350.107 75.5037 348.994 64.3067 349.497C58.5489 349.752 51.9947 350.561 49.0746 356.55C41.4939 372.098 62.2655 400.525 69.2563 412.435C88.5708 445.347 110.286 476.648 130.527 508.925C146.603 534.554 166.979 563.032 173.197 593.412C180.742 630.28 131.441 656.512 114.103 682.471C84.046 727.485 140.993 753.133 169.068 774.595C201.308 799.235 227.92 844.187 199.019 882.311C187.963 896.888 174.359 905.576 169.422 924.601C161.699 954.353 167.54 988.353 173.805 1017.76C183.244 1061.98 198.181 1105.71 218.487 1145.67C233.034 1174.27 257.169 1219.13 292.512 1215.77C316.304 1213.52 340.491 1205.32 363.658 1198.07C398.346 1187.22 432.598 1174.85 466.667 1162C545.311 1132.42 623.088 1099.81 699.338 1063.93C751.364 1039.45 896.489 939.39 907.408 935.82C939.967 925.185 976.985 927.057 1010.55 928.705C1055.21 930.895 1099.63 936.566 1144.03 941.822C1165.16 944.309 1186.4 947.35 1207.64 948.576C1222.76 949.446 1242.62 950.193 1255.86 940.92C1281.71 922.828 1252.91 881.434 1241 863.921C1204.51 810.231 1158.36 763.736 1115.08 716.197C1093.84 692.857 1072.28 669.553 1053 644.341C1045.22 634.16 1025.73 613.718 1034.26 599.775Z" stroke="white" stroke-opacity="0.03" stroke-width="3"/>
<path fill-rule="evenodd" clip-rule="evenodd" d="M1015.17 588.197C1052.84 543.021 1104.83 509.422 1149.7 471.692C1172.22 452.749 1194.88 433.29 1214.31 410.727C1224.41 398.995 1237.03 384.158 1238.98 367.803C1244.18 324.051 1166.06 329.968 1142.68 328.307C1097.47 325.084 1046.4 322.639 1005.39 300.313C980.332 286.664 967.993 264.263 972.676 234.819C974.752 221.755 977.985 210.657 972.676 197.83C967.297 184.834 956.089 175.665 944.741 168.791C912.128 149.021 871.599 142.7 834.881 137.991C791.807 132.506 748.409 130.364 705.038 131.583C667.051 132.635 629.248 120.809 592.158 113.014C543.024 102.693 492.998 93.6794 442.72 95.0418C403.011 96.1242 362.99 104.628 329.044 127.229C294.55 150.246 273.81 184.697 255.112 221.873C226.847 278.073 191.621 353.383 129.61 374.727C120.591 377.837 112.186 378.18 102.884 378.721C98.3655 378.982 92.5319 379.063 90.2905 384.033C84.8993 396.002 104.83 419.206 110.393 427.293C128.147 453.11 147.394 477.764 165.591 503.238C182.578 527.021 201.082 551.805 211.634 579.674C228.427 624.06 174.739 650.014 176.243 692.31C177.181 718.568 201.017 737.399 219.892 750.425C243.132 766.444 276.595 776.976 288.226 806.208C296.891 827.981 283.295 840.653 272.825 857.176C255.083 885.17 253.873 923.117 255.72 955.522C258.209 999.311 267.935 1043.75 284.493 1084C291.995 1102.24 301.185 1121.22 314.716 1135.39C327.392 1148.67 339.39 1152.08 356.33 1149.36C408.19 1141.02 460.551 1117.79 510.281 1097.03C572.764 1070.96 634.385 1042.17 694.167 1009.77C734.931 987.684 776.616 964.312 812.396 933.792C821.722 925.836 831.271 917.189 838.09 906.694C843.245 898.806 845.434 892.293 854.122 887.789C879.875 874.445 915.697 877.935 943.29 879.322C987.41 881.531 1031.32 887.409 1075.17 892.703C1100.76 895.814 1148.96 905.599 1169.39 882.128C1187.03 861.86 1165.75 827.303 1154.87 809.449C1127.38 764.298 1092 724.671 1059.18 683.868C1044.14 665.168 1028.51 646.325 1016.09 625.535C1012.92 620.234 1007.83 613.211 1006.96 606.772C1005.98 599.394 1010.55 593.765 1015.17 588.197Z" stroke="white" stroke-opacity="0.03" stroke-width="3"/>
<path fill-rule="evenodd" clip-rule="evenodd" d="M1011.94 598.714C1046.74 558.77 1088.68 525.954 1126.04 488.575C1142.8 471.816 1159.72 454.234 1172.48 433.789C1179.35 422.794 1186.64 408.955 1184.75 395.289C1179.31 356.068 1115.06 359.61 1089.11 357.313C1050.54 353.938 1006.23 350.539 972.122 329.391C949.781 315.538 941.404 295.081 945.574 268.696C950.052 240.394 940.041 219.85 917.257 204.061C888.693 184.282 852.636 176.22 819.469 170.492C779.51 163.625 739.045 160.58 698.567 161.397C659.201 162.194 621.061 155.233 581.954 150.707C530.105 144.712 476.591 141.755 425.326 154.044C380.691 164.746 340.375 188.329 310.152 224.799C278.585 262.863 262.957 310.819 237.324 352.93C221.337 379.196 199.043 413.942 169.169 424.152C159.205 427.557 141.047 422.963 149.005 439.716C153.553 449.297 162.066 457.702 168.791 465.534C179.658 478.191 190.885 490.499 201.934 502.981C225.484 529.59 250.704 556.765 268.355 588.273C290.596 627.943 257.536 658.474 261.565 698.698C263.73 720.345 277.995 737.621 293.085 751.193C302.849 759.984 313.533 767.598 324.441 774.701C335.832 782.122 349.312 787.775 359.247 797.369C373.405 811.022 367.258 827.184 364.604 844.834C359.931 875.851 358.905 907.359 361.548 938.642C364.781 976.986 372.361 1016.43 388.331 1051.27C394.543 1064.84 402.413 1079.22 414.099 1088.31C425.786 1097.41 437.874 1096.79 451.265 1094.05C490.986 1085.95 530.624 1067.12 568.303 1049.27C615.463 1026.93 661.696 1001.96 705.847 973.55C736.323 953.939 766.9 932.753 792.397 906.163C799.813 898.424 806.868 890.138 812.573 880.886C816.49 874.543 818.59 866.356 824.265 861.587C842.023 846.701 877.673 851.146 898.497 852.012C940.058 853.736 980.965 861.936 1022.47 863.928C1045.13 865.017 1080.61 867.757 1097.24 847.405C1112.89 828.273 1098.72 798.141 1089.37 779.707C1070.99 743.461 1046.3 711.168 1024.17 677.475C1015.07 663.61 1005.11 649.104 999.212 633.272C993.973 619.165 1003.02 608.955 1011.94 598.714Z" stroke="white" stroke-opacity="0.03" stroke-width="3"/>
<path fill-rule="evenodd" clip-rule="evenodd" d="M1003.38 599.367C1031.08 564.217 1064.48 533.015 1092.38 497.294C1108.72 476.374 1136.85 441.206 1124.22 411.714C1110.36 379.306 1062.05 378.423 1034.13 375.812C1000.89 372.704 961.866 368.458 933.424 348.222C924.429 341.825 916.766 333.358 913.518 322.205C910.04 310.269 913.842 299.825 914.337 287.876C915.375 262.81 901.192 242.686 882.424 228.867C855.898 209.327 822.729 200.089 791.399 193.649C755.904 186.384 719.82 182.803 683.663 182.956C649.109 183.08 614.92 182.272 580.33 181.339C535.095 180.096 489.223 182.104 445.343 194.78C402.118 207.276 362.819 230.694 331.948 265.141C301.833 298.755 281.514 339.842 263.718 381.693C253.621 405.447 236.561 440.945 212.476 452.943C201.766 458.284 191.255 457.917 202.644 471.805C216.985 489.293 236.314 503.324 252.925 518.282C276.887 539.866 301.45 561.874 321.562 587.536C334.406 603.924 340.13 619.826 339.246 641.044C338.562 657.208 335.462 673.203 337.03 689.429C340.702 727.513 369.132 753.63 394.266 777.95C410.435 793.591 425.201 805.521 433.525 827.771C443.369 854.068 447.501 882.677 454.079 909.981C461.306 939.965 469.653 971.154 485.427 997.563C499.468 1021.07 516.544 1031.62 542.104 1025.28C581.969 1015.41 621.262 991.091 656.654 968.593C692.676 945.703 728.079 919.965 757.929 888.502C774.045 871.512 785.045 851.562 799.357 833.31C817.359 810.395 858.085 819.073 882.288 821.013C922.466 824.233 1048.89 848.329 1037.22 770.284C1032.35 737.708 1013.18 707.644 999.155 678.898C993.343 666.968 984.931 652.651 983.617 638.98C982.184 624.091 995.046 609.948 1003.38 599.367Z" stroke="white" stroke-opacity="0.03" stroke-width="3"/>
<path fill-rule="evenodd" clip-rule="evenodd" d="M988.748 602.352C1009.92 570.499 1035.26 540.407 1053.42 506.004C1065.21 483.724 1076.78 453.955 1061.58 430.381C1044.42 403.778 1006.58 397.577 978.784 394.187C950.141 390.697 915.948 387.762 892.537 367.59C885.089 361.165 878.949 352.5 877.806 342.125C876.704 332.173 879.815 322.221 878.784 312.089C876.474 289.336 863.399 270.589 846.541 256.992C796.674 216.767 722.453 207.823 662.286 206.772C632.17 206.249 601.176 208.992 570.865 210.958C531.533 213.508 492.143 218.982 454.632 232.174C374.878 260.214 321.422 322.402 284.088 399.785C272.339 424.142 263.347 450.496 244.933 470.071C235.441 480.178 237.515 487.437 247.219 496.655C262.392 511.061 280.9 522.07 297.741 534.093C321.693 551.192 346.159 568.546 367.342 589.028C381.943 603.148 392.308 616.751 395.455 637.924C397.7 653.02 397.175 668.402 398.524 683.591C401.094 712.446 409.891 741.082 425.464 765.017C437.838 783.988 452.569 801.23 467.795 817.669C487.588 839.072 504.328 860.817 519.36 886.22C539.288 919.845 567.289 981.871 614.227 965.456C665.998 947.344 714.522 901.322 747.737 856.731C758.892 841.759 768.048 823.398 783.092 812.357C805.612 795.856 828.463 796.434 855.25 796.503C895.354 796.596 982.62 805.783 983.563 742.389C983.934 717.272 973.634 693.524 968.702 669.366C963.14 642.309 974.288 624.059 988.748 602.352Z" stroke="white" stroke-opacity="0.03" stroke-width="3"/>
<path fill-rule="evenodd" clip-rule="evenodd" d="M972.979 605.192C993.92 563.677 1040.88 495.46 1005.16 449.297C986.297 424.9 952.928 415.732 924.935 410.269C902.408 405.849 875.241 404.19 858.22 385.456C845.71 371.682 851.263 351.636 846.47 334.394C840.521 313.019 826.867 295.528 810.088 282.382C763.2 245.641 698.006 234.366 641.602 231.966C583.023 229.48 518.477 241.11 463.353 263.48C394.621 291.382 343.129 344.215 307.118 411.12C300.474 423.471 294.436 436.144 288.057 448.644C283.771 457.029 277.416 465.14 274.038 473.96C268.413 488.667 275.04 500.688 285.664 510.272C300.945 524.071 319.717 533.892 337.139 544.247C360.963 558.419 385.318 572.336 407.48 588.962C422.372 600.151 437.96 612.203 443.29 631.614C446.928 644.854 447.682 658.876 447.553 672.588C447.27 701.988 448.732 725.763 461.737 752.689C483.139 796.895 516.048 836.644 550.815 869.717C578.1 895.674 621.274 935.995 661.028 918.641C696.697 903.101 717.562 865.907 741.062 835.836C752.488 821.216 765.322 807.865 780.403 797.466C799.417 784.358 817.316 778.857 839.843 776.712C877.758 773.101 934.929 772.163 946.649 724.178C950.976 706.469 948.506 688.127 950.776 670.189C953.742 646.47 962.414 626.132 972.979 605.192Z" stroke="white" stroke-opacity="0.03" stroke-width="3"/>
<path fill-rule="evenodd" clip-rule="evenodd" d="M951.204 606.729C966.116 561.304 985.706 504.057 949.69 463.685C932.244 444.127 907.705 433.194 883.955 425.024C866.945 419.168 839.937 417.445 829.508 399.443C821.849 386.195 820.788 367.919 813.86 353.726C804.339 334.212 789.915 318.139 772.994 305.557C728.912 272.77 671.496 260.101 619.135 256.473C505.364 248.602 389.602 311.294 328.722 414.439C310.569 445.185 287.137 477.909 316.473 509.321C348.501 543.589 396.749 559.643 434.975 583.992C449.581 593.288 468.193 604.464 476.341 621.296C481.243 631.414 481.579 644.108 481.803 655.246C482.392 683.615 484.625 709.127 495.437 735.598C512.134 776.505 538.759 814.245 568.931 845.159C595.244 872.115 632.769 903.794 670.983 884.361C700.283 869.427 718.866 837.729 741.632 814.363C766.967 788.341 798.299 770.805 832.708 762.237C866.179 753.924 902.891 748.317 920.531 712.998C926.582 700.883 932.904 685.195 935.172 671.786C938.834 649.676 944.196 627.919 951.204 606.729Z" stroke="white" stroke-opacity="0.03" stroke-width="3"/>
<path fill-rule="evenodd" clip-rule="evenodd" d="M926.924 607.049C933.823 561.179 934.589 513.35 902.536 477.199C887.577 460.333 868.668 448.351 849.545 437.495C835.477 429.507 820.948 422.769 810.44 409.673C800.706 397.548 793.306 383.469 783.907 371.027C771.509 354.538 756.674 340.264 739.973 328.754C698.108 299.955 647.181 286.486 598.459 281.814C574.873 279.543 549.289 278.361 525.862 284.552C503.238 290.524 480.867 299.968 460.064 310.979C415.841 334.365 377.515 368.613 349.731 411.913C330.68 441.613 320.379 470.492 345.049 500.622C372.862 534.584 416.472 553.322 452.417 575.364C477.07 590.482 504.7 605.301 509.305 637.427C512.973 662.99 515.951 687.253 525.438 711.416C539.558 747.058 560.319 779.344 586.489 806.359C610.423 830.97 640.701 851.855 674.935 838.709C702.059 828.276 723.103 804.903 746.801 788.193C773.211 769.529 802.227 759.239 832.782 750.965C860.242 743.499 886.097 732.027 903.845 707.671C907.478 702.694 911.293 697.276 914.093 691.707C917.667 684.603 917.389 677.56 918.091 669.597C919.919 648.582 923.805 627.809 926.924 607.049Z" stroke="white" stroke-opacity="0.03" stroke-width="3"/>
<path fill-rule="evenodd" clip-rule="evenodd" d="M900.153 603.3C899.563 559.731 889.633 518.555 862.433 484.6C850.805 470.075 836.92 458.111 824.124 444.801C813.822 434.071 804.086 424.101 792.24 415.259C764.139 394.322 741.301 367.228 711.438 348.584C671.573 323.659 625.909 309.882 580.599 304.374C558.474 301.682 535.618 300.741 513.234 303.782C494.009 306.393 475.597 315.559 458.517 324.937C425.041 343.307 392.538 369.416 370.802 402.447C322.881 475.272 417.362 528.219 465.855 559.226C488.157 573.489 522.234 590.009 531.369 618.261C537.899 638.444 541.877 658.97 550.287 678.53C572.878 731.059 618.736 792.842 679.848 784.617C705.998 781.103 729.832 766.827 754.243 757.243C779.38 747.373 805.324 741.871 831.45 735.833C855.868 730.193 875.329 722.167 891.1 700.651C898.638 690.376 897.972 678.075 898.644 665.469C899.74 644.763 900.418 623.938 900.153 603.3Z" stroke="white" stroke-opacity="0.03" stroke-width="3"/>
<path fill-rule="evenodd" clip-rule="evenodd" d="M875.775 597.719C865.958 531.956 829.494 460.161 775.879 421.969C712.812 377.042 644.488 339.211 569.136 328.335C534.201 323.292 495.932 320.811 462.968 337.302C437.88 349.844 408.739 368.592 394.932 394.957C361.154 459.446 436.287 510.783 479.093 540.618C502.139 556.679 531.475 572.33 548.845 595.785C558.923 609.385 564.068 627.374 572.204 642.31C596.861 687.572 637.449 724.079 688.007 730.608C711.384 733.624 734.932 729.893 758.131 726.927C781.88 723.892 805.923 722.245 829.524 718.01C848.363 714.627 870.566 708.9 877.504 687.628C886.254 660.821 879.782 624.576 875.775 597.719Z" stroke="white" stroke-opacity="0.03" stroke-width="3"/>
<path fill-rule="evenodd" clip-rule="evenodd" d="M851.871 587.155C837.552 525.326 807.231 465.016 756.259 428.105C729.229 408.533 697.85 395.022 667.724 381.673C633.575 366.544 597.897 354.8 561.456 348.975C516.084 341.719 442.6 335.178 418.895 389.726C395.367 443.869 454.822 491.788 489.98 519.096C512.522 536.59 536.646 552.646 558.183 571.771C569.862 582.139 578.858 594.119 588.741 606.279C616.055 639.972 654.994 666.645 694.684 680.884C733.151 694.688 780.738 700.799 821.343 696.237C838.864 694.277 851.387 687.661 856.685 668.855C864.028 642.71 857.79 612.695 851.871 587.155Z" stroke="white" stroke-opacity="0.03" stroke-width="3"/>
<path fill-rule="evenodd" clip-rule="evenodd" d="M828.118 570.502C813.893 516.064 783.212 466.343 738.459 433.67C688.293 397.043 623.697 376.691 564.325 366.341C532.766 360.844 464.377 345.94 448.291 388.596C432.205 431.253 478.707 473.29 505.472 496.431C537.955 524.474 572.978 551.551 607.959 576.712C638.352 598.589 670.782 620.955 703.702 637.849C722.268 647.433 741.609 655.258 761.495 661.232C776.22 665.62 794.945 672.164 810.383 668.898C849.322 660.649 834.921 596.531 828.118 570.502Z" stroke="white" stroke-opacity="0.03" stroke-width="3"/>
<path fill-rule="evenodd" clip-rule="evenodd" d="M798.798 554.201C767.587 451.252 668.704 400.62 573.495 382.972C551.371 378.876 489.351 364.106 476.985 395.554C465.001 426.045 503.113 462.205 520.956 479.338C576.245 532.425 644.554 571.787 709.283 610.782C729.487 622.953 765.927 649.366 790.989 637.182C818.201 623.929 805.263 575.548 798.798 554.201Z" stroke="white" stroke-opacity="0.03" stroke-width="3"/>
<path fill-rule="evenodd" clip-rule="evenodd" d="M766.829 534.386C739.687 458.572 660.742 415.09 588.16 400.755C570.383 397.248 525.233 386.327 511.768 407.484C499.308 427.055 529.043 455.413 540.168 466.681C564.935 491.774 594.287 512.446 623.284 532.315C650.095 550.698 677.196 569.541 705.408 585.088C720.267 593.272 748.135 610.735 765.021 598.098C783.2 584.503 772.855 551.22 766.829 534.386Z" stroke="white" stroke-opacity="0.03" stroke-width="3"/>
<path fill-rule="evenodd" clip-rule="evenodd" d="M731.599 512.236C710.912 462.726 655.507 430.576 606.632 419.893C593.481 417.025 565.057 409.583 553.963 422.805C543.75 434.982 560.21 452.833 567.516 461.077C599.894 497.62 647.309 530.261 690.751 550.309C701.674 555.349 721.309 565.242 732.545 555.069C744.071 544.622 736.352 523.604 731.599 512.236Z" stroke="white" stroke-opacity="0.03" stroke-width="3"/>
<path fill-rule="evenodd" clip-rule="evenodd" d="M694.228 491.439C682.571 466.854 652.104 448.306 626.867 442.402C609.105 438.25 587.756 441.836 603.235 463.236C618.612 484.473 647.144 503.869 671.327 512.468C689.777 519.026 704.238 512.556 694.228 491.439Z" stroke="white" stroke-opacity="0.03" stroke-width="3"/>
<path fill-rule="evenodd" clip-rule="evenodd" d="M1639.53 661.714C1640.27 613.144 1664.73 562.666 1652.65 513.176C1642.73 472.53 1592.8 469.136 1562.84 450.721C1539.03 436.091 1525.52 410.175 1512.64 385.308C1501.08 362.984 1490.69 339.989 1478.5 318.031C1470.61 303.836 1457.07 275.962 1439.96 275.458C1423.58 274.974 1408.56 296.695 1399.05 309.535C1386.65 326.272 1375.65 344.115 1363.61 361.12C1343.31 389.802 1318.95 411.032 1291.07 431.125C1259.33 453.988 1227.07 476.07 1194.29 497.371C1170.15 513.101 1145.85 528.713 1122.65 545.997C1108.1 556.842 1075.98 577.19 1075.83 597.184C1075.76 606.724 1084.33 617.289 1090.1 624.915C1099.88 637.824 1111.01 649.626 1122.19 661.173C1143 682.684 1164.69 703.218 1186.15 724.001C1214 750.974 1240.6 777.506 1265.09 808.127C1290.4 839.823 1314.58 872.564 1339.26 904.857C1355.98 926.734 1372.67 951.302 1396.78 964.726C1426.97 981.507 1451.76 963.813 1482.29 963.608C1508.56 963.427 1506.62 899.189 1509.96 881.327C1513.31 863.248 1520.69 846.418 1523.55 828.295C1527.12 805.672 1527.17 782.527 1528.05 759.662C1529.11 731.695 1529.53 705.07 1557.86 694.405C1573.98 688.345 1591.41 687.071 1608.1 683.442C1618.9 681.086 1639.29 677.059 1639.53 661.714Z" stroke="white" stroke-opacity="0.03" stroke-width="3"/>
<path fill-rule="evenodd" clip-rule="evenodd" d="M1626.61 653.074C1629.37 612.36 1645.63 560.249 1630.25 518.222C1617.11 482.308 1576.01 477.652 1548.33 458.786C1525.49 443.225 1515.32 417.761 1503.9 392.745C1494.73 372.677 1485.85 352.417 1475.45 332.99C1467.78 318.674 1456.08 294.505 1440.14 291.542C1425.82 288.878 1410.45 310.215 1402.41 321.071C1390.68 336.918 1380.64 354.129 1370.28 370.978C1352.07 400.575 1333.42 427.191 1306.76 448.932C1279.99 470.768 1250.7 487.094 1221.09 504.087C1197.94 517.382 1174.89 531.063 1152.89 546.413C1136.5 557.841 1112.94 572.468 1105.44 592.847C1099.5 608.968 1129.61 635.72 1138.49 645.163C1156.76 664.577 1176.13 682.802 1195.54 700.915C1219.19 722.986 1243.6 742.288 1264.49 767.466C1301.85 812.481 1333.08 868.538 1381.16 901.994C1410.15 922.173 1442.42 927.333 1474.67 924.315C1487.44 923.119 1490.51 904.091 1492.12 892.993C1494.79 874.557 1495.13 855.803 1497.19 837.291C1499.11 819.963 1503.39 803.499 1506.84 786.506C1510.33 769.29 1511.31 751.65 1513.88 734.315C1515.48 723.553 1517.05 711.029 1524.01 702.377C1531.22 693.421 1543.1 689.667 1553.49 686.816C1573 681.513 1624.67 681.806 1626.61 653.074Z" stroke="white" stroke-opacity="0.03" stroke-width="3"/>
<path fill-rule="evenodd" clip-rule="evenodd" d="M1609.99 636.03C1614.62 598.658 1621.11 552.111 1602.24 517.679C1586.82 489.525 1553.94 483.452 1530.45 465.108C1510.91 449.853 1503.53 425.591 1493.83 403.045C1485.88 384.551 1477.88 365.977 1468.23 348.379C1460.92 335.032 1451.49 316.937 1436.97 312.281C1424.55 308.302 1410.52 326.125 1403.64 334.995C1391.92 350.113 1382.36 367.052 1372.87 383.768C1357.35 411.12 1343.06 440.336 1320.96 462.584C1299.49 484.173 1273.98 496.916 1248 511.245C1228.1 522.223 1208.32 533.624 1189.57 546.715C1175.17 556.76 1157.32 568.665 1149.82 585.38C1143.33 599.796 1159.99 616.859 1168.31 627.029C1182.06 643.813 1197.31 659.211 1212.35 674.671C1228.59 691.349 1246.57 706.734 1262.28 723.823C1295.31 759.784 1321.7 799.599 1362.41 827.15C1388.78 844.996 1424.26 861.208 1455.43 858.293C1477.85 856.192 1476.37 803.839 1478.53 787.111C1482.06 759.759 1488.9 731.021 1499.76 705.827C1509.09 684.238 1531.25 677.58 1551.64 672.737C1564.41 669.698 1577.79 668.057 1590.14 663.357C1604.44 657.912 1608.05 651.695 1609.99 636.03Z" stroke="white" stroke-opacity="0.03" stroke-width="3"/>
<path fill-rule="evenodd" clip-rule="evenodd" d="M1594.49 618.513C1597.25 586.917 1596.63 549.553 1578.77 522.221C1563.12 498.281 1535.25 491.978 1515.43 473.119C1499.96 458.405 1493.89 434.415 1485.57 414.957C1475.4 391.166 1461.16 347.226 1435.51 338.273C1411.65 329.95 1386.7 383.118 1378.07 398.972C1364.39 424.066 1352.96 451.585 1336.37 474.758C1322.09 494.709 1302.96 505.737 1282.65 517.589C1256.76 532.726 1217.44 550.676 1203.6 580.177C1193.28 602.16 1226.83 634.841 1238.29 650.072C1250.28 665.982 1259.31 684.841 1271.67 700.191C1291.19 724.412 1322.82 743.913 1348.93 758.795C1374.32 773.271 1407.28 789.294 1436.08 788.34C1455.01 787.717 1458.61 756.868 1462.65 741.8C1468.44 720.378 1476.13 701.182 1492.65 686.612C1509.47 671.78 1529.3 664.791 1550.14 658.675C1560.84 655.558 1573.04 653.127 1582.61 646.83C1593.18 639.978 1593.43 630.658 1594.49 618.513Z" stroke="white" stroke-opacity="0.03" stroke-width="3"/>
<path fill-rule="evenodd" clip-rule="evenodd" d="M1575.6 600.301C1575.45 573.004 1569.53 543.896 1552 522.84C1537.39 505.301 1514.53 499.439 1500.55 481.51C1489.47 467.315 1483.83 447.389 1476.42 430.905C1467.35 410.705 1454.53 375.418 1431.98 368.408C1409.97 361.583 1390.5 400.45 1382.06 415.83C1369.71 438.381 1359.7 462.284 1347.23 484.773C1337.46 502.417 1325.52 513.788 1309.61 525.16C1290.94 538.517 1264.89 553.313 1254.91 575.411C1247.72 591.411 1265.13 616.977 1271.45 631.072C1275.69 640.539 1279.57 650.155 1281.7 660.416C1283.36 668.407 1283.52 675.802 1288.33 682.663C1300.43 699.922 1326.97 702.174 1344.98 707.863C1368.89 715.413 1394.27 723.993 1419.3 725.631C1434.68 726.654 1442.53 711.697 1451.31 701.175C1461.68 688.737 1476.37 679.791 1489.2 670.404C1506.13 657.997 1524.56 650.279 1543.62 642.375C1552.21 638.808 1562.31 635.309 1568.97 628.218C1575.93 620.867 1575.65 610.153 1575.6 600.301Z" stroke="white" stroke-opacity="0.03" stroke-width="3"/>
<path fill-rule="evenodd" clip-rule="evenodd" d="M1555.76 584.096C1552.72 561.17 1543.25 539.259 1527.25 523.052C1514.98 510.609 1498.7 503.604 1488.85 488.654C1479.68 474.718 1473.29 458.872 1465.72 443.972C1457.7 428.22 1445.79 401.891 1427.3 397.605C1407.37 392.988 1392.02 419.547 1383.52 434.267C1372.78 452.869 1364.62 472.883 1355.02 492.126C1347.78 506.468 1338.56 519.585 1327.64 531.04C1316.2 543.116 1300.68 554.681 1294.89 571.286C1289.77 585.993 1299.34 603.786 1301.04 618.699C1302.84 634.632 1299.67 651.367 1309.7 665.048C1330.38 693.262 1382.27 688.03 1411.93 688.633C1441.2 689.255 1464.74 671.991 1488.42 655.567C1504.07 644.723 1520.36 635.54 1536.4 625.437C1552.76 615.128 1558.43 604.272 1555.76 584.096Z" stroke="white" stroke-opacity="0.03" stroke-width="3"/>
<path fill-rule="evenodd" clip-rule="evenodd" d="M1537.33 570.974C1528.34 537.761 1500.26 520.109 1480.19 495.01C1463.77 474.462 1451.46 431.909 1423.8 426.28C1392.41 419.892 1373.61 476.274 1362.69 498.029C1350.58 522.158 1329.01 541.784 1320.04 567.325C1315.32 580.731 1319.37 593.24 1321.88 606.64C1324.63 621.354 1326.7 636.397 1336.2 648.24C1354.91 671.546 1391.43 671.384 1417.74 672.026C1444.97 672.692 1469.06 656.721 1490.76 640.781C1513.77 623.9 1546.53 605.034 1537.33 570.974Z" stroke="white" stroke-opacity="0.03" stroke-width="3"/>
<path fill-rule="evenodd" clip-rule="evenodd" d="M1522.27 561.968C1512.14 538.305 1490.86 519.068 1473.59 500.907C1459.17 485.767 1443.67 455.289 1421.69 453.117C1395.85 450.554 1380.2 483.099 1370.03 503.055C1360.03 522.664 1345.62 543.368 1340.08 564.89C1334.3 587.308 1349.68 617.502 1364.35 633.366C1380.72 651.056 1407.49 657.592 1430.46 656.886C1454.51 656.168 1476.57 641.548 1494.79 626.384C1514.26 610.173 1534.05 589.438 1522.27 561.968Z" stroke="white" stroke-opacity="0.03" stroke-width="3"/>
<path fill-rule="evenodd" clip-rule="evenodd" d="M1508.3 557.513C1498.63 537.832 1481.86 521.183 1466.39 506.332C1454.46 494.866 1436.85 475.371 1419.64 474.894C1400.7 474.366 1384.64 490.73 1377.11 507.504C1369.69 524.047 1361.87 544.789 1360.76 562.939C1358.35 602.463 1407.47 646.736 1444.36 643.134C1479.33 639.717 1527.59 596.727 1508.3 557.513Z" stroke="white" stroke-opacity="0.03" stroke-width="3"/>
<path fill-rule="evenodd" clip-rule="evenodd" d="M1495.38 555.343C1482.04 529.7 1449.62 493.142 1419.6 492.274C1385.15 491.281 1376.5 531.963 1380.99 561.445C1385.55 591.535 1425.27 635.088 1456.95 629.203C1487.86 623.46 1511.2 585.755 1495.38 555.343Z" stroke="white" stroke-opacity="0.03" stroke-width="3"/>
<path fill-rule="evenodd" clip-rule="evenodd" d="M1481.74 551.197C1470.44 529.726 1446.33 502.908 1421.18 502.096C1391.21 501.136 1391.77 535.482 1398.57 556.86C1405.64 579.056 1436.76 616.966 1463 610.98C1488.51 605.137 1492.57 571.775 1481.74 551.197Z" stroke="white" stroke-opacity="0.03" stroke-width="3"/>
<path fill-rule="evenodd" clip-rule="evenodd" d="M1469.86 548.725C1462.4 533.405 1443.73 514.042 1425.99 513.422C1404.29 512.678 1408.51 539.92 1414.12 553.069C1420.78 568.714 1443.11 595.9 1461.85 591.495C1480.3 587.158 1476.02 561.348 1469.86 548.725Z" stroke="white" stroke-opacity="0.03" stroke-width="3"/>
<path fill-rule="evenodd" clip-rule="evenodd" d="M449.418 1424.07C497.432 1454.81 551.71 1480.18 602.895 1505.97C677.695 1543.65 753.596 1580.32 832.191 1608.39C874.329 1623.44 928.932 1645.13 974.146 1633.34C990.677 1629.03 1005.75 1616 1020.57 1607.53C1041.01 1595.86 1061.75 1584.76 1082.46 1573.64C1123.99 1551.34 1165.65 1529.27 1206.47 1505.55C1226.12 1494.12 1245.19 1479.73 1265.65 1469.98C1277.61 1464.28 1291.92 1466.95 1304.7 1467.31C1334.29 1468.15 1363.87 1469.74 1393.45 1471.09C1429.63 1472.75 1465.89 1474.51 1502.12 1473.85C1518.45 1473.55 1558.46 1476.61 1567.46 1461.77C1572.29 1453.77 1560.89 1439.35 1555.6 1432.68C1545.9 1420.42 1534.74 1409.37 1523.73 1398.44C1498.27 1373.15 1471.23 1349.06 1448.6 1320.81C1436.98 1306.29 1421.74 1288.54 1429.33 1268.72C1436.99 1248.69 1450.27 1231.35 1458.36 1211.4C1467.69 1188.43 1471.55 1164.53 1475.95 1140.18C1479.21 1122.18 1486.8 1106.23 1493.94 1089.64C1501.83 1071.3 1510 1052.8 1515.47 1033.46C1519.09 1020.68 1524.93 997.699 1512.27 989.611C1494.28 978.109 1460.56 987.422 1440.05 990.811C1411.72 995.486 1383.59 1001.44 1355.33 1006.57C1334.81 1010.3 1314.23 1014.39 1293.37 1014.83C1259.75 1015.53 1226.01 1013.1 1192.48 1010.84C1130.39 1006.65 1068.74 1000.96 1006.44 1000.96C951.853 1000.96 825.714 1067.59 796.188 1079.32C737.254 1102.74 676.752 1124.95 620.982 1156.11C605.895 1164.54 582.675 1175.78 574.736 1193.15C569.839 1203.85 572.09 1210.03 560.539 1216.93C544.78 1226.34 524.589 1230.03 507.144 1234.24C479.05 1241.01 450.738 1246.75 422.515 1252.89C365.431 1265.27 308.736 1279.27 251.888 1292.74C234.703 1296.81 213.91 1297.71 197.527 1304.89C186.966 1309.5 188.062 1315.3 196.236 1322.3C210.575 1334.58 230.671 1341.4 247.609 1348.41C272.426 1358.67 297.65 1367.83 322.886 1376.86C348.122 1385.89 373.487 1394.63 398.735 1403.68C415.413 1409.64 434.431 1414.48 449.418 1424.07Z" stroke="white" stroke-opacity="0.03" stroke-width="3"/>
<path fill-rule="evenodd" clip-rule="evenodd" d="M488.929 1417.31C539.718 1448.11 596.095 1472.65 650.444 1496.59C720.001 1527.24 791.133 1555.98 864.422 1575.14C907.453 1586.38 958.224 1598.8 1002.19 1585.91C1017.88 1581.3 1029.6 1570.96 1043.04 1561.84C1058.37 1551.42 1074.28 1541.87 1090.2 1532.48C1122.96 1513.14 1156.07 1494.46 1189.53 1476.45C1207.25 1466.86 1226.75 1454.03 1246.77 1450.71C1262.69 1448.06 1280.76 1451.89 1296.75 1453C1325.54 1455.01 1354.32 1457.08 1383.13 1458.83C1416.36 1460.86 1449.69 1462.72 1482.99 1462.4C1501.56 1462.22 1533.42 1465.2 1546.55 1452.54C1558 1441.5 1516.31 1401.55 1508.97 1393.96C1486.07 1370.27 1461.99 1347.7 1440.67 1322.36C1428.07 1307.42 1412.74 1289.25 1407.42 1269.44C1402.9 1252.56 1411.63 1233.33 1416.78 1217.73C1423.22 1198.18 1428.42 1177.93 1435.91 1158.79C1442.57 1141.75 1453.18 1126.56 1462.5 1111.06C1472.76 1094.02 1483.14 1076.69 1490.75 1058.09C1495.41 1046.65 1503.12 1027.49 1493.86 1016.58C1483.15 1004 1450.15 1012.22 1436.59 1014.01C1409.07 1017.7 1381.77 1023.18 1354.44 1028.08C1309.05 1036.23 1265.78 1043.35 1219.56 1041.64C1159.37 1039.41 1099.24 1034.17 1039.06 1031.27C1016.84 1030.19 994.258 1028.01 972.018 1029.19C959.268 1029.86 949.559 1033.97 942.143 1043.24C932.016 1055.9 908.691 1062.9 892.469 1070.16C867.175 1081.47 841.562 1091.99 816.02 1102.65C759.95 1126.06 702.801 1148.63 649.625 1178.9C632.801 1188.48 613.537 1199.16 601.093 1214.98C594.149 1223.8 595.9 1232.3 591.662 1241.67C586.05 1254.01 567.6 1259.57 556.571 1263.61C535.285 1271.4 513.127 1276.63 491.14 1281.52C441.388 1292.59 391.519 1299.87 340.96 1305.23C329.112 1306.47 282.455 1310.79 306.959 1331.58C334.034 1354.56 373.128 1365.83 405 1378.78C433.713 1390.42 462.45 1401.25 488.929 1417.31Z" stroke="white" stroke-opacity="0.03" stroke-width="3"/>
<path fill-rule="evenodd" clip-rule="evenodd" d="M559.118 1411.61C606.858 1438.71 659.743 1458.93 711.159 1478.27C773.551 1501.73 837.506 1522.65 902.943 1534.37C944.05 1541.72 989.37 1547.37 1030.2 1535.15C1058.08 1526.81 1079.65 1504.26 1104.14 1488.74C1128.63 1473.22 1154.11 1458.66 1180.35 1446.52C1196.64 1438.98 1214.16 1431.39 1232.28 1432.39C1276.34 1434.8 1320.35 1440.55 1364.46 1443.34C1393.64 1445.21 1422.88 1446.74 1452.15 1446.28C1469.8 1446.01 1494.05 1447.13 1509.68 1437.33C1526.95 1426.5 1434.98 1333.99 1426.29 1323.57C1404.5 1297.47 1378.11 1262.82 1382.32 1225.69C1386.35 1190.19 1403.82 1163.69 1423.58 1135.88C1434.79 1120.06 1470.74 1077.79 1457.42 1057.22C1449.81 1045.46 1424.71 1049.53 1412.79 1050.33C1389.3 1051.91 1365.94 1055.3 1342.57 1058.25C1308.5 1062.52 1273.49 1069.12 1239.27 1071.05C1215.44 1072.39 1191.47 1070.6 1167.6 1070.56C1133.37 1070.51 1099.15 1070.78 1064.92 1071.11C1036.18 1071.38 1007.2 1071.11 978.565 1074.01C960.762 1075.81 947.248 1079.83 934.478 1091.19C923.367 1101.07 906.602 1106.86 892.439 1113.15C869.047 1123.52 845.349 1133.14 821.727 1142.91C772.27 1163.37 722.247 1183.41 674.909 1208.98C653.299 1220.65 616.966 1236.99 611.897 1265.28C610.068 1275.48 608.723 1279.89 599.281 1285.69C585.88 1293.92 569.829 1297.63 554.793 1300.85C519.741 1308.37 483.673 1307.25 448.68 1314.68C434.429 1317.75 415.823 1324.36 432.092 1339.51C451.076 1357.22 478.711 1366.95 501.453 1377.89C512.807 1383.35 524.503 1388.46 535.284 1395.12C543.563 1400.26 550.65 1406.84 559.118 1411.61Z" stroke="white" stroke-opacity="0.03" stroke-width="3"/>
<path fill-rule="evenodd" clip-rule="evenodd" d="M649.538 1403.15C693.643 1425.16 741.543 1441.16 788.583 1455.59C840.831 1471.59 894.339 1484.84 948.555 1490.48C985.991 1494.39 1025.88 1495.54 1062.21 1483.59C1085.19 1476.02 1100.77 1460.11 1120.54 1446.77C1150.38 1426.61 1182.67 1410.63 1218.52 1414.52C1258.71 1418.87 1299.04 1422.13 1339.49 1424.31C1363.9 1425.62 1388.4 1426.61 1412.83 1425.69C1428.28 1425.12 1448.18 1424.15 1461.62 1416.77C1479.6 1406.88 1412.06 1331.63 1403.64 1320.67C1382.76 1293.47 1367.45 1264.93 1358.51 1231.23C1351.21 1203.73 1366.11 1182.12 1381.49 1161.55C1391.04 1148.78 1421.92 1116.65 1412.25 1100.06C1406.95 1090.91 1389.47 1091.39 1380.09 1090.92C1362.2 1090.03 1344.24 1090.96 1326.35 1091.36C1299.94 1091.98 1271.82 1087.7 1245.63 1091.15C1187.59 1098.78 1129.7 1105.38 1071.3 1110.61C1039.11 1113.49 1006.72 1116.11 974.82 1121.66C963.367 1123.65 951.536 1125.76 940.684 1130.28C933.702 1133.17 929.896 1138.11 924.004 1142.16C895.912 1161.44 859.242 1171.36 827.604 1183.71C785.543 1200.14 743.258 1216.31 702.316 1235.71C680.782 1245.92 650.704 1257.65 635.887 1278.48C631.409 1284.77 633.318 1289.8 630.502 1295.85C627.261 1302.83 617.416 1304.91 611.059 1306.86C596.63 1311.28 536.234 1317.96 564.067 1343.87C577.347 1356.22 594.268 1364.14 609.238 1373.84C614.659 1377.35 619.944 1380.88 624.463 1385.63C632.022 1393.58 639.469 1398.11 649.538 1403.15Z" stroke="white" stroke-opacity="0.03" stroke-width="3"/>
<path fill-rule="evenodd" clip-rule="evenodd" d="M745.88 1393.63C832.95 1429.23 934.993 1453.49 1029.92 1448.79C1061.49 1447.22 1095.45 1441.99 1122.82 1424.07C1138.95 1413.49 1151.85 1401.54 1171.23 1397.72C1185.22 1394.96 1200.29 1398.1 1214.36 1399.23C1234.75 1400.87 1255.15 1402.34 1275.56 1403.53C1300.87 1404.98 1326.26 1406.1 1351.62 1405.5C1369.74 1405.07 1394.76 1405.56 1410.5 1395.29C1429.29 1383.04 1381.46 1325.57 1374.73 1315.33C1358.42 1290.51 1346.98 1266.46 1342.85 1236.55C1341.63 1227.84 1337.54 1218.9 1338.07 1210.12C1338.62 1201.15 1343.86 1193.16 1348.69 1186.11C1355.02 1176.87 1376.96 1154.94 1370.67 1143.67C1367.2 1137.45 1354.17 1136.66 1347.42 1135.34C1334.75 1132.85 1321.9 1131.51 1309.15 1129.53C1287.52 1126.16 1266.05 1115.17 1244.35 1115.48C1185.99 1116.31 1126.79 1135.4 1069.59 1145.89C1035.59 1152.15 1001.36 1157.83 967.777 1166.3C957.15 1168.98 946.204 1171.76 936.103 1176.31C929.053 1179.48 924.525 1185.14 917.995 1188.7C892.957 1202.35 864.164 1210.63 837.278 1219.82C802.374 1231.77 767.353 1243.36 732.691 1256.09C710.965 1264.06 683.028 1271.08 664.307 1285.87C650.634 1296.67 659.979 1299.9 667.194 1309.96C670.878 1315.09 670.028 1320.14 671.628 1325.95C673.912 1334.24 680.371 1340.21 686.429 1345.58C694.783 1352.99 705.911 1359.1 712.742 1368.18C715.151 1371.38 715.039 1375.36 716.987 1378.14C722.655 1386.27 737.692 1390.28 745.88 1393.63Z" stroke="white" stroke-opacity="0.03" stroke-width="3"/>
<path fill-rule="evenodd" clip-rule="evenodd" d="M838.454 1380.94C909.121 1403.33 987.75 1416.07 1062.45 1410.16C1088.44 1408.1 1114.59 1403.31 1138.8 1392.79C1149.81 1388.02 1158.08 1382.7 1170.15 1382.42C1198.15 1381.76 1226.25 1384.07 1254.25 1384.62C1274.28 1385.02 1294.42 1385.16 1314.41 1383.46C1327.78 1382.33 1345.85 1380.97 1356.8 1372.32C1372.71 1359.72 1343.99 1316.9 1338.14 1305.07C1328.46 1285.45 1318.84 1263.64 1322.69 1240.93C1323.86 1233.99 1325.95 1227.85 1326.22 1220.77C1326.48 1214.69 1325.76 1209.07 1327.8 1203.26C1330.33 1196.05 1341.57 1184.86 1337.71 1178.22C1335.07 1173.69 1327.26 1173.47 1322.06 1172.02C1313.63 1169.67 1305.4 1166.58 1297.45 1162.79C1289.08 1158.78 1281.96 1152.59 1273.29 1149.28C1259.21 1143.91 1243.46 1143.4 1228.67 1143.43C1169.65 1143.53 1109.88 1155.81 1052.35 1168.66C1022.4 1175.35 992.276 1182.48 963.163 1192.62C954.323 1195.7 944.304 1198.8 936.531 1204.49C931.68 1208.03 928.392 1212.47 922.882 1215.14C875.811 1237.89 821.392 1246.34 771.423 1262.78C758.416 1267.05 686.335 1288.67 724.023 1309C746.918 1321.35 771.11 1326.97 792.002 1343.87C798.367 1349.01 802.61 1353.26 805.097 1361.1C806.736 1366.32 802.793 1363.67 808.297 1369.13C814.974 1375.68 830.221 1378.33 838.454 1380.94Z" stroke="white" stroke-opacity="0.03" stroke-width="3"/>
<path fill-rule="evenodd" clip-rule="evenodd" d="M911.932 1367.7C994.667 1385.98 1082.28 1386.84 1166.32 1370.65C1187.51 1366.57 1209.56 1367.54 1231.01 1366.5C1251.84 1365.51 1288.89 1367.58 1304.03 1350.67C1315 1338.42 1303.09 1312.37 1298.97 1298.66C1293.72 1281.2 1289.14 1263.15 1297.76 1246.19C1302.8 1236.26 1309.72 1226.8 1315.13 1216.96C1317.72 1212.26 1323.05 1205.06 1320.83 1200.61C1317.15 1193.26 1299.95 1190.17 1291.61 1186.71C1264.94 1175.64 1236.7 1172.81 1208.18 1172.89C1155.52 1173.03 1102.58 1180.63 1050.91 1190.94C1027.15 1195.68 1003.05 1200.74 980.123 1208.99C967.151 1213.65 957.584 1222.65 945.197 1227.98C905.313 1245.17 862.462 1254.35 821.892 1270.06C810.15 1274.62 766.288 1289.76 788.384 1307.63C809.777 1324.92 840.98 1322.86 863.224 1339.13C865.742 1340.99 868.856 1343.22 870.316 1346.23C871.179 1348.03 869.66 1351.46 870.316 1352.49C877.147 1363.62 901.43 1365.39 911.932 1367.7Z" stroke="white" stroke-opacity="0.03" stroke-width="3"/>
<path fill-rule="evenodd" clip-rule="evenodd" d="M965.534 1355.63C1007.98 1361.77 1051.36 1363.29 1094.52 1363.68C1118.11 1363.89 1144.03 1365.48 1167.11 1359.17C1181.29 1355.29 1194.99 1351.89 1209.61 1349.45C1225.33 1346.81 1250.66 1344.9 1260.24 1330.62C1267.39 1319.95 1262.49 1298.02 1262.23 1285.05C1261.95 1270.82 1264.71 1260.27 1274.23 1250.09C1280.22 1243.68 1307.67 1220.41 1304.5 1213.7C1301.48 1207.3 1282.35 1206.32 1274.08 1204.66C1247.93 1199.39 1221.44 1197.56 1194.85 1197.85C1153.66 1198.28 1112.32 1202.72 1071.78 1210.33C1055.02 1213.5 1037.69 1216.77 1021.68 1223.1C1010.9 1227.36 1001.91 1234.92 991.194 1239.33C960.518 1251.97 928.082 1260.55 897.299 1273.43C887.421 1277.56 855.232 1288.58 862.948 1305.56C869.383 1319.74 891.267 1324.05 902.02 1333.55C920.312 1349.76 942.208 1352.26 965.534 1355.63Z" stroke="white" stroke-opacity="0.03" stroke-width="3"/>
<path fill-rule="evenodd" clip-rule="evenodd" d="M992.274 1347.48C1025.94 1351.55 1060.4 1353.32 1094.56 1353.41C1116.61 1353.47 1139.87 1353.78 1161.51 1348.56C1172.38 1345.93 1181.82 1339.79 1192.11 1335.42C1202.7 1330.91 1217.32 1325.89 1221.89 1315.57C1226.19 1305.87 1224.59 1291.72 1228.37 1280.02C1231.73 1269.64 1238.76 1263.23 1246.33 1256.22C1251.16 1251.73 1275.94 1232.33 1273.07 1228.04C1270 1223.45 1255.12 1223.83 1247.37 1223.19C1226.04 1221.41 1204.63 1220.85 1183.23 1221.49C1154.03 1222.44 1124.61 1225.08 1095.92 1231.05C1075.57 1235.27 1060.21 1245.35 1041.24 1252.73C1016.65 1262.33 991.185 1269.92 966.836 1280.41C954.702 1285.64 936.743 1292.37 930.529 1305.87C928.14 1311.04 925.822 1324.2 928.481 1329.37C931.677 1335.59 943.569 1338.23 949.183 1339.82C963.246 1343.81 977.963 1345.75 992.274 1347.48Z" stroke="white" stroke-opacity="0.03" stroke-width="3"/>
</svg>
