<svg width="197" height="16" viewBox="0 0 197 16" fill="none" xmlns="http://www.w3.org/2000/svg">
<path d="M195.391 5.67388C195.295 5.38588 195.103 5.19388 194.815 5.09788C193.471 4.61788 192.031 4.61788 190.687 4.42588C189.919 4.32988 189.247 4.32988 188.479 4.13788C187.999 4.04188 187.423 3.94588 186.847 3.94588C186.367 3.94588 185.887 3.75388 185.407 3.75388C185.311 3.75388 185.119 3.65788 185.023 3.75388C184.351 3.94588 183.775 3.75388 183.199 3.65788C182.623 3.56188 182.143 3.56188 181.663 3.46588C181.087 3.75388 180.607 3.27388 180.127 3.36988C179.551 3.46588 178.879 3.17788 178.303 3.27388C177.631 3.36988 176.959 2.98588 176.287 3.27388C176.191 3.27388 175.903 3.17788 175.711 3.17788C175.327 3.17788 174.847 3.08188 174.463 2.98588C173.887 2.88988 173.215 2.69788 172.639 2.88988C171.967 3.08188 171.391 2.79388 170.815 2.69788L169.855 2.79388C169.759 2.79388 169.567 2.88988 169.471 2.79388C168.703 2.50588 168.031 2.69788 167.263 2.69788C166.975 2.60188 166.591 2.69789 166.303 2.60189C164.863 2.12189 163.423 2.40988 161.983 2.40988C161.215 2.40988 160.447 2.31388 159.679 2.31388C158.431 2.31388 157.183 2.12188 155.935 2.12188C154.879 2.12188 153.823 2.12188 152.671 1.92988C151.999 1.83388 151.327 1.83388 150.655 1.83388C150.463 1.83388 150.271 1.92988 150.079 1.83388C149.119 1.73788 148.159 1.83388 147.103 1.73788C145.279 1.54588 143.359 1.92988 141.535 1.44988C141.343 1.44988 141.151 1.54588 140.959 1.54588C140.191 1.54588 139.519 1.64188 138.751 1.64188C138.367 1.64188 137.887 1.35388 137.407 1.64188C136.927 1.35388 136.447 1.44988 135.871 1.64188C135.583 1.73788 135.295 1.73788 135.007 1.64188C134.239 1.35388 133.567 1.35388 132.799 1.54588C132.415 1.64188 131.935 1.35388 131.455 1.64188C130.783 1.35388 129.919 1.64188 129.151 1.54588C128.383 1.44988 127.615 1.35388 126.847 1.64188C126.175 1.35388 125.311 1.44988 124.543 1.44988C124.255 1.54588 123.967 1.54588 123.679 1.54588C123.487 1.54588 123.199 1.73788 123.007 1.64188C122.623 1.44988 122.143 1.54588 121.663 1.54588C121.279 1.54588 120.799 1.44988 120.319 1.44988C119.551 1.44988 118.879 1.54588 118.111 1.44988C117.439 1.35388 116.767 1.64188 116.095 1.44988C115.423 1.25788 114.655 1.64188 113.983 1.64188C111.679 1.64188 109.471 1.64188 107.263 1.73788C106.687 1.44988 106.111 1.73788 105.535 1.73788C104.959 1.73788 104.383 1.54588 103.807 1.73788C103.519 1.83388 103.135 1.83388 102.751 1.83388C101.503 1.83388 100.159 1.92988 98.9108 1.83388C98.2388 2.12188 97.4708 2.02588 96.7028 2.02588C95.1668 2.02588 93.5348 1.92988 91.9028 2.12188C90.9428 2.21788 90.0788 2.31388 89.1188 2.31388H86.9108C86.1428 2.31388 85.3748 2.21788 84.6068 2.40988C83.8388 2.60188 83.1668 2.31388 82.4948 2.40988C81.6308 2.50588 80.7668 2.40989 79.9988 2.60189C79.2308 2.79389 78.3668 2.40988 77.5988 2.88988H77.3108C76.3508 2.50588 75.3908 2.69788 74.5268 2.69788C73.5668 2.69788 72.6068 2.69788 71.7428 2.98588C71.4548 3.08188 71.2628 3.08188 70.9748 2.98588C70.7828 2.88988 70.4948 2.88988 70.2068 2.98588C69.4388 2.98588 68.6708 2.79388 67.9028 3.17788C67.1348 2.98588 66.3668 3.08188 65.5988 3.17788C64.8308 3.27388 64.1588 3.27388 63.3908 3.27388C62.6228 3.27388 61.8548 3.27388 61.0868 3.46588C60.3188 3.27388 59.6468 3.75388 58.9748 3.36988C58.2068 3.65788 57.5348 3.36989 56.7668 3.56189C55.8068 3.75389 54.8468 3.84988 53.8868 3.75388C53.2148 3.65788 52.6388 3.84988 52.0628 3.94588C51.4868 4.04188 51.0068 4.04188 50.5268 4.04188C49.9508 4.04188 49.3748 3.84988 48.7988 4.04188C47.7428 4.42588 46.5908 4.04188 45.4388 4.42588C44.3828 4.13788 43.3268 4.61788 42.2708 4.61788C41.7908 4.61788 41.2148 4.52188 40.7348 4.71388C40.0628 5.00188 39.2948 4.90588 38.5268 4.90588C38.1428 4.80988 37.6628 4.80988 37.1828 5.00188C36.7028 5.19388 36.1268 5.38588 35.5508 5.19388C35.2628 5.09788 34.9748 5.19389 34.5908 5.28989C34.0148 5.28989 33.4388 5.38588 32.7668 5.38588C32.1908 5.38588 31.6148 5.86588 30.9428 5.57788C30.7508 5.48188 30.5588 5.67388 30.5588 5.86588C30.4628 6.15388 30.3668 6.44188 30.0788 5.96188C29.9828 5.76988 29.6948 5.76989 29.4068 5.76989C29.0228 5.76989 28.7348 5.96188 28.3508 5.86588C28.0628 5.76988 27.6788 6.15388 27.2948 5.96188C27.1028 5.86588 27.1028 6.15389 27.0068 6.24989C27.0068 6.53789 26.9108 6.63388 26.6228 6.44188C25.8548 6.15388 25.1828 6.05788 24.5108 6.72988C24.3188 6.92188 24.3188 6.82588 24.2228 6.63388C24.2228 6.44188 24.3188 6.24989 23.9348 6.24989C23.1668 6.44189 22.3988 6.72988 21.6308 6.72988C20.7668 6.72988 19.9988 6.92188 19.2308 7.01788C17.5988 7.20988 15.9668 7.20988 14.2388 7.59388C13.2788 7.78588 12.2228 7.88188 11.2628 8.16988C10.9748 8.26588 10.6868 8.26588 10.4948 8.26588C10.1108 8.26588 9.63079 8.55389 9.24679 8.45789C8.76679 8.36189 8.38279 8.55388 7.90279 8.74588C7.61479 8.84188 7.32679 8.84188 7.03879 8.93788C5.88679 8.93788 4.83079 9.22589 3.87079 9.70589C3.67879 9.80189 3.39079 9.80188 3.10279 9.89788C2.81479 10.0899 2.62279 10.0899 2.23879 9.99388C1.56679 9.80188 0.89479 9.80188 0.31879 10.2819C0.31879 10.3779 0.22279 10.4739 0.31879 10.5699C0.31879 10.6659 0.414789 10.6659 0.510789 10.7619C0.70279 10.7619 0.798789 10.7619 0.99079 10.6659C1.18279 10.5699 1.37479 10.4739 1.56679 10.5699C2.52679 11.0499 3.48679 10.8579 4.44679 10.6659C4.92679 10.5699 5.31079 10.7619 5.69479 10.3779C5.98279 10.0899 6.36679 10.0899 6.65479 10.0899C7.13479 10.0899 7.51879 9.99388 7.90279 9.99388C8.67079 9.99388 9.24679 9.70588 9.82279 9.12988C10.0148 8.84188 10.3988 8.84188 10.6868 9.03388C11.2628 9.60988 11.8388 9.51388 12.6068 9.51388C13.1828 9.51388 13.7588 9.32188 14.4308 9.32188C14.6228 9.32188 14.8148 9.41788 15.0068 9.22588C15.4868 8.74588 16.3508 8.93788 16.9268 8.64988C17.1188 8.55388 17.3108 8.64988 17.5028 8.64988C17.7908 8.74588 18.0788 8.74588 18.2708 8.74588C19.7108 8.74588 21.1508 8.45788 22.5908 8.26588L22.8788 8.07388C23.0708 7.68988 23.2628 7.88188 23.6468 7.88188C24.0308 7.88188 24.6068 7.97788 24.9908 7.88188C25.7588 7.68988 26.5268 7.40188 27.3908 7.59388C28.0628 7.20988 28.7348 7.40188 29.4068 7.30588H32.0948C32.3828 7.30588 32.7668 7.40188 33.0548 7.01788C33.0548 6.82588 33.1508 6.82588 33.2468 6.92188C33.5348 7.49788 34.1108 7.30588 34.4948 7.20988C35.2628 7.01788 35.9348 6.92188 36.7028 6.53788C36.8948 6.44188 36.9908 6.63388 37.0868 6.72988C37.2788 6.92188 37.3748 6.92188 37.4708 6.92188C38.2388 6.63388 39.0068 6.72988 39.7748 6.63388C40.6388 6.53788 41.4068 6.63388 42.2708 6.63388C42.6548 6.63388 43.0388 6.72988 43.3268 6.63388C44.2868 6.34588 45.1508 6.34588 46.1108 6.34588C46.8788 6.34588 47.4548 6.44188 48.2228 6.05788C48.4148 5.96188 48.7028 6.05788 48.8948 6.05788C50.6228 6.05788 52.3508 6.15389 53.9828 5.76989H54.4628C55.1348 5.76989 55.7108 5.76988 56.3828 5.67388C57.0548 5.57788 57.6308 5.76989 58.3028 5.76989C58.6868 5.67389 59.0708 5.76988 59.3588 5.57788C59.8388 5.28988 60.2228 5.76988 60.6068 5.57788C61.2788 5.19388 61.8548 5.38588 62.5268 5.38588C63.3908 5.38588 64.2548 5.48188 65.0228 5.38588C66.1748 5.19388 67.3268 5.09788 68.3828 5.09788C68.6708 5.09788 68.9588 5.19388 69.1508 5.09788C69.6308 4.90588 70.0148 4.90588 70.3988 5.00188C70.7828 5.09788 71.1668 4.80988 71.6468 5.00188C72.0308 5.19388 72.5108 4.90588 72.9908 5.00188C73.3748 5.09788 73.7588 5.19388 74.2388 5.00188C74.6228 4.80988 75.1028 5.00188 75.5828 4.90588C76.0628 4.80988 76.5428 4.71388 77.1188 4.71388C77.6948 4.71388 78.1748 4.80989 78.7508 4.80989C79.3268 4.80989 79.8068 4.61788 80.2868 4.71388C80.8628 4.80988 81.4388 4.80989 82.0148 4.80989C82.8788 4.80989 83.8388 5.00188 84.6068 4.61788C84.7988 4.52188 84.9908 4.61788 85.1828 4.61788C86.0468 4.80988 86.8148 4.90588 87.6788 4.61788C88.3508 4.42588 89.0228 4.13788 89.6948 4.52188C91.3268 4.52188 93.0548 4.42588 94.7828 4.42588C95.3588 4.23388 96.0308 4.32988 96.6068 4.32988C96.9908 4.32988 97.2788 4.52188 97.6628 4.23388C98.6228 4.42588 99.4868 4.13788 100.447 4.13788C101.695 4.13788 103.039 4.32988 104.383 4.04188H104.671C105.343 4.32988 105.919 4.13788 106.591 4.04188C106.783 3.94588 106.879 4.04188 107.071 4.04188C108.127 4.32988 109.183 4.42588 110.335 4.04188C110.623 3.94588 110.911 3.94588 111.199 4.04188C111.679 4.23388 112.159 4.23388 112.639 4.04188C113.023 3.84988 113.407 3.84988 113.791 4.04188C113.983 4.13788 114.271 4.13788 114.463 4.13788H117.631C118.015 4.23388 118.495 4.23388 118.879 4.13788C119.839 3.94588 120.703 4.13788 121.663 4.13788C122.047 4.13788 122.527 4.23388 123.007 3.94588C123.487 3.65788 123.871 3.56188 124.351 4.04188C124.543 4.13788 124.831 4.13788 125.119 4.13788C125.983 4.13788 126.847 4.23388 127.711 4.04188C128.479 4.32988 129.343 4.13788 130.111 4.13788C130.879 4.13788 131.647 4.23388 132.415 4.13788C133.183 4.04188 133.951 4.13788 134.719 4.13788C136.351 4.13788 137.983 4.04188 139.519 4.32988C139.615 4.42588 139.807 4.42588 139.903 4.32988C140.479 4.13788 141.055 4.32988 141.727 4.42588C142.879 4.61788 144.127 4.52188 145.375 4.13788C145.663 4.04188 145.951 4.04188 146.239 4.13788C147.103 4.42588 147.967 4.52188 148.831 4.52188C149.791 4.52188 150.655 4.61788 151.519 4.61788C152.095 4.61788 152.671 4.71388 153.151 4.71388C153.823 4.71388 154.399 4.80988 155.071 4.61788C155.647 4.42588 156.223 4.80989 156.895 4.80989H157.471C158.431 4.61789 159.199 4.90588 160.063 4.90588C160.159 4.90588 160.159 5.00188 160.255 5.00188V5.09788C160.351 5.28988 160.255 5.38588 160.159 5.38588C159.967 5.38588 159.775 5.48188 159.679 5.38588C159.295 5.00188 158.623 5.19388 158.047 5.38588C157.759 5.48188 157.471 5.48188 157.183 5.48188H153.247C152.863 5.48188 152.479 5.57788 152.191 5.67388C151.711 5.86588 151.423 5.28988 150.943 5.48188C150.655 5.57788 150.367 5.48188 150.079 5.57788C149.791 5.67388 149.599 5.67388 149.311 5.67388C148.927 5.67388 148.639 5.76988 148.255 5.57788C147.871 5.38588 147.487 5.76988 147.103 5.57788H143.839C143.455 5.57788 143.167 5.76988 142.879 5.67388C142.111 5.38588 141.343 5.96188 140.671 5.57788C139.807 5.86588 139.039 5.76989 138.175 5.76989H135.871C135.103 5.76989 134.335 5.86588 133.567 5.86588C132.703 5.86588 131.935 6.15388 131.071 5.86588C130.975 5.76988 130.783 5.86588 130.591 5.96188C130.207 5.96188 129.727 6.05788 129.247 6.05788C127.519 6.05788 125.695 6.05789 123.967 6.24989C122.911 6.34589 121.759 6.34588 120.703 6.34588C119.839 6.34588 118.879 6.53788 118.015 7.01788C117.919 7.11388 117.727 7.11388 117.631 7.20988C117.439 6.63388 116.959 7.01788 116.671 6.92188C115.999 6.72988 115.327 6.72988 114.559 6.92188C114.367 6.92188 114.175 7.01788 113.983 6.92188C113.599 6.72988 113.215 6.92188 112.927 6.92188C112.159 6.92188 111.391 7.11388 110.623 7.01788C110.047 6.92188 109.471 7.11388 108.991 7.40188C108.703 7.49788 108.511 7.49788 108.223 7.40188C107.935 7.40188 107.647 7.49789 107.263 7.49789C107.071 7.49789 106.783 7.59388 106.495 7.59388C105.919 7.40188 105.343 7.68988 104.767 7.78588C104.383 7.88188 104.095 7.97788 103.807 7.88188C103.519 7.78588 103.327 7.97788 103.423 8.26588C103.519 9.32188 104.287 9.80188 105.151 9.22588C105.439 9.03388 105.631 9.03388 105.823 9.12988C106.399 9.22588 106.783 9.51388 107.359 9.22588C107.551 9.12988 107.839 9.12988 108.127 9.12988C108.799 9.12988 109.375 9.12988 109.951 9.03388C110.623 8.93788 111.199 8.84188 111.871 8.84188H113.695C113.983 8.84188 114.367 8.84188 114.751 8.74588C115.327 8.55388 115.999 8.36188 116.671 8.55388C116.959 8.64988 117.247 8.55389 117.439 8.45789C117.823 8.26589 118.207 8.55389 118.495 8.45789C118.975 8.16989 119.263 8.45788 119.743 8.55388C120.319 8.64988 120.991 8.64989 121.567 8.45789C121.663 8.36189 121.855 8.26588 121.951 8.36188C122.431 8.55388 122.719 8.26588 123.007 8.16988C123.391 8.07388 123.871 8.26588 124.063 7.78588C124.159 7.68988 124.255 7.68988 124.351 7.68988C124.831 7.68988 125.215 8.07388 125.695 7.78588H125.791C126.079 8.36188 126.655 8.16988 127.039 8.26588C127.519 8.26588 127.903 8.16988 128.287 8.26588C128.767 8.26588 129.247 8.26588 129.439 7.88188C129.535 7.68988 129.727 7.78588 129.823 7.88188C130.111 8.16988 130.399 8.07388 130.687 8.07388C130.975 8.07388 131.263 7.97789 131.647 7.97789C132.127 7.97789 132.703 8.07388 133.183 7.88188C133.759 7.68988 134.239 7.97789 134.815 7.97789H135.295C136.255 7.97789 137.119 7.97788 138.079 7.78588C139.039 7.59388 139.999 7.97788 140.959 7.68988C141.247 7.59388 141.631 7.59388 141.919 7.78588C142.303 7.97788 142.687 7.88188 143.071 7.78588C144.607 7.40188 146.143 7.68988 147.583 7.59388C148.639 7.49788 149.791 7.59388 150.847 7.59388C151.423 7.68988 151.807 7.30588 151.999 6.82588C152.671 7.59388 152.671 7.68988 153.439 7.59388C154.111 7.49788 154.879 7.59388 155.551 7.40188H156.223C156.703 7.68988 157.279 7.59388 157.855 7.59388C158.911 7.59388 159.967 7.49788 161.023 7.68988C161.599 7.78588 162.175 7.49789 162.847 7.49789C162.943 7.49789 163.039 7.30588 163.135 7.20988C163.423 6.63388 163.423 7.01788 163.423 7.20988C163.519 7.49788 163.711 7.59388 163.903 7.59388C164.287 7.59388 164.767 7.40188 165.055 7.59388C165.439 7.88188 166.015 7.40189 166.495 7.49789C166.975 7.59389 167.455 7.68988 167.935 7.88188H168.415C169.375 7.88188 170.239 7.88188 171.199 7.88188H172.543C172.831 7.88188 173.023 7.78588 173.311 7.88188C174.175 7.97788 175.039 7.88188 175.903 7.78588C176.479 7.68988 177.055 7.68988 177.631 7.88188C177.919 7.97788 178.303 7.78588 178.687 7.78588C178.783 7.78588 178.879 7.68988 179.071 7.78588C179.743 8.07388 180.415 7.97788 181.087 7.78588L182.239 7.49789C182.719 7.40189 182.911 8.07388 183.391 7.88188C183.679 7.78588 183.871 7.88189 184.159 7.97789H185.695C186.175 7.97789 186.559 7.68988 187.039 7.88188C187.519 8.07388 188.095 8.07388 188.575 8.07388H189.055C189.247 8.07388 189.439 8.07389 189.535 7.97789C189.919 7.59389 190.303 7.88188 190.783 7.88188H194.719C195.007 7.88188 195.295 7.68988 195.391 7.30588C195.487 6.82588 195.583 6.24988 195.391 5.67388ZM102.463 7.78588C101.983 7.78588 101.599 7.68988 101.215 8.07388C101.119 8.16988 100.927 8.16988 100.927 8.07388C100.543 7.88188 100.063 7.97789 99.6788 7.97789C97.6628 7.97789 95.7428 8.45788 93.7268 8.26588C93.7268 8.26588 93.6308 8.26588 93.6308 8.36188C93.1508 8.64988 92.5748 8.55388 92.0948 8.55388C91.8068 8.55388 91.5188 8.55388 91.3268 8.64988C90.7508 8.93788 90.0788 8.93788 89.5028 8.84188C88.9268 8.74588 88.5428 9.12988 87.9668 9.32188C87.8708 9.32188 87.7748 9.51388 87.7748 9.60988C87.6788 9.70588 87.6788 9.89788 87.6788 9.89788C87.5828 9.99388 87.4868 10.0899 87.3908 10.0899C87.1988 9.99388 87.1988 9.80189 87.1988 9.70589C87.1988 9.60989 87.2948 9.51388 87.3908 9.41788C87.4868 9.12988 87.3908 9.03388 87.1028 9.03388C86.8148 9.12988 86.4308 9.22588 86.1428 9.22588C85.3748 9.03388 84.5108 9.22588 83.7428 9.22588C83.2628 9.22588 82.8788 9.22588 82.4948 9.32188C82.1108 9.41788 81.7268 9.70588 81.3428 9.60988H80.0948C79.5188 9.70588 78.9428 9.60988 78.3668 9.80188C77.9828 9.89788 77.5988 10.0899 77.2148 9.99388C76.6388 9.89788 76.2548 9.99389 75.7748 10.1859C75.2948 10.3779 74.9108 10.4739 74.3348 10.2819C74.0468 10.1859 73.5668 10.1859 73.4708 10.3779C73.0868 10.7619 72.7028 10.5699 72.3188 10.5699H71.0708C70.5908 10.5699 70.2068 10.7619 69.7268 10.7619C69.1508 10.7619 68.5748 10.7619 68.1908 10.9539C67.7108 11.1459 67.2308 10.8579 66.7508 11.0499C65.8868 11.3379 64.9268 11.3379 64.0628 11.4339C62.9108 11.5299 61.9508 11.6259 61.1828 12.3939C61.1828 12.4899 60.9908 12.3939 60.8948 12.3939C60.8948 12.2979 60.8948 12.2019 60.9908 12.1059C60.9908 11.8179 60.8948 11.7219 60.7028 11.8179L59.8388 12.1059C59.7428 12.1059 59.6468 12.2979 59.7428 12.3939C59.7428 12.4899 59.8388 12.4899 59.9348 12.4899C60.1268 12.3939 60.3188 12.2979 60.4148 12.4899C60.4148 12.5859 60.3188 12.7779 60.2228 12.8739C60.1268 12.9699 59.9348 13.0659 60.1268 13.2579C60.2228 13.3539 60.3188 13.4499 60.5108 13.4499C60.8948 13.4499 61.3748 13.2579 61.8548 13.2579C62.3348 13.2579 62.7188 13.1619 62.9108 12.7779C63.0068 12.5859 63.3908 12.5859 63.4868 12.7779C63.7748 13.2579 64.1588 13.2579 64.5428 12.9699C65.0228 12.5859 65.5028 12.2979 66.0788 12.5859C66.2708 12.6819 66.5588 12.5859 66.8468 12.4899C67.1348 12.3939 67.2308 12.2019 67.2308 11.8179C67.2308 11.7219 67.4228 11.5299 67.5188 11.5299C67.7108 11.5299 67.8068 11.7219 67.9028 11.8179C67.9028 11.9139 67.9028 12.0099 67.8068 12.1059C67.8068 12.4899 67.9028 12.5859 68.1908 12.5859C68.7668 12.5859 68.8628 12.5859 68.8628 12.1059C68.8628 11.8179 68.9588 11.6259 69.1508 11.7219C69.4388 11.8179 69.6308 11.9139 69.8228 12.1059C70.0148 12.2019 70.2068 12.2979 70.3988 12.2979C71.0708 12.2979 71.6468 12.2979 72.2228 12.2019C73.4708 12.0099 74.6228 11.6259 75.7748 11.6259C76.0628 11.6259 76.3508 11.3379 76.6388 11.5299C77.2148 11.9139 77.6948 11.4339 78.1748 11.4339C78.3668 11.4339 78.6548 11.3379 78.8468 11.4339C79.3268 11.6259 79.7108 11.4339 80.0948 11.4339C80.7668 11.4339 81.3428 10.8579 82.0148 11.2419C83.0708 11.0499 84.2228 11.0499 85.2788 11.0499C85.7588 11.0499 86.2388 10.8579 86.5268 10.4739C86.8148 10.0899 86.7188 10.3779 86.9108 10.5699C87.0068 10.6659 87.1988 10.7619 87.2948 10.7619L88.2548 10.4739H89.5988C90.0788 10.4739 90.6548 10.2819 91.1348 10.4739C91.3268 10.4739 91.5188 10.4739 91.7108 10.3779C92.6708 10.2819 93.5348 9.89788 94.4948 9.99388L94.6868 9.80188C94.7828 9.70588 94.7828 9.60988 94.8788 9.80188C95.0708 9.89788 95.1668 10.0899 95.4548 10.0899C95.9348 10.0899 96.4148 9.89788 96.8948 9.99388C96.9908 10.0899 97.0868 9.89788 96.9908 9.80188C96.9908 9.70588 96.9908 9.51388 97.0868 9.60988C97.8548 9.89788 98.6228 9.70589 99.3908 9.70589H101.887C102.271 9.70589 102.271 9.51388 102.271 9.12988C102.175 8.84188 102.175 8.74588 102.559 8.74588C102.751 8.74588 102.751 8.64989 102.847 8.45789C102.943 8.26589 103.327 8.07388 103.039 7.78588C102.847 7.59388 102.655 7.78588 102.463 7.78588ZM59.0708 12.3939H58.1108C57.6308 12.2979 57.1508 12.6819 56.6708 12.5859C55.8068 12.3939 55.2308 12.7779 54.5588 12.9699C54.2708 13.0659 54.2708 13.3539 54.2708 13.6419V13.8339C54.9428 13.9299 55.7108 13.9299 56.3828 13.9299C56.6708 13.9299 56.9588 13.8339 57.0548 13.6419C57.2468 13.3539 57.4388 13.0659 57.6308 12.8739C57.9188 12.5859 58.3028 13.0659 58.6868 12.8739C58.7828 12.7779 58.9748 12.8739 59.0708 12.8739C59.1668 12.8739 59.2628 12.6819 59.2628 12.5859C59.1668 12.5859 59.1668 12.3939 59.0708 12.3939ZM53.7908 13.0659C53.5988 12.9699 53.4068 12.9699 53.2148 12.9699C52.7348 12.9699 52.2548 12.9699 51.8708 13.3539C51.6788 13.5459 51.2948 13.6419 51.0068 13.4499C50.6228 13.2579 50.2388 13.3539 49.8548 13.6419C49.4708 13.9299 49.4708 14.0259 48.8948 14.6019C48.7988 14.6979 48.7988 14.6979 48.8948 14.7939C49.1828 14.7939 49.4708 14.7939 49.6628 14.6019C50.0468 14.2179 50.5268 14.1219 51.1028 14.2179C52.0628 14.4099 53.1188 14.1219 54.0788 14.1219C54.1748 14.1219 54.1748 13.9299 54.2708 13.9299L53.9828 13.6419C53.8868 13.4499 53.9828 13.1619 53.7908 13.0659Z" fill="#ACACAC"/>
</svg>
