<svg width="56" height="57" viewBox="0 0 56 57" fill="none" xmlns="http://www.w3.org/2000/svg">
<rect x="4" y="4.5" width="48" height="48" rx="24" fill="#F4EBFF"/>
<path d="M27.302 38.1147C27.5234 38.2439 27.6341 38.3085 27.7903 38.342C27.9116 38.368 28.0884 38.368 28.2097 38.342C28.3659 38.3085 28.4766 38.2439 28.698 38.1147C30.646 36.9783 36 33.4083 36 28.4999V23.7175C36 22.918 36 22.5182 35.8692 22.1746C35.7537 21.871 35.566 21.6001 35.3223 21.3854C35.0465 21.1423 34.6722 21.0019 33.9236 20.7212L28.5618 18.7105C28.3539 18.6326 28.25 18.5936 28.143 18.5782C28.0482 18.5644 27.9518 18.5644 27.857 18.5782C27.75 18.5936 27.6461 18.6326 27.4382 18.7105L22.0764 20.7212C21.3278 21.0019 20.9535 21.1423 20.6777 21.3854C20.434 21.6001 20.2463 21.871 20.1308 22.1746C20 22.5182 20 22.918 20 23.7175V28.4999C20 33.4083 25.354 36.9783 27.302 38.1147Z" stroke="#7F56D9" stroke-width="2" stroke-linecap="round" stroke-linejoin="round"/>
<rect x="4" y="4.5" width="48" height="48" rx="24" stroke="#F9F5FF" stroke-width="8"/>
</svg>
