<svg width="56" height="57" viewBox="0 0 56 57" fill="none" xmlns="http://www.w3.org/2000/svg">
<rect x="4" y="4.5" width="48" height="48" rx="24" fill="#D1FADF"/>
<path d="M27.302 38.115C27.5234 38.2442 27.6341 38.3087 27.7903 38.3422C27.9116 38.3682 28.0884 38.3682 28.2097 38.3422C28.3659 38.3087 28.4766 38.2442 28.698 38.115C30.646 36.9785 36 33.4086 36 28.5001V23.7177C36 22.9182 36 22.5184 35.8692 22.1748C35.7537 21.8713 35.566 21.6004 35.3223 21.3856C35.0465 21.1426 34.6722 21.0022 33.9236 20.7215L28.5618 18.7108C28.3539 18.6328 28.25 18.5938 28.143 18.5784C28.0482 18.5647 27.9518 18.5647 27.857 18.5784C27.75 18.5938 27.6461 18.6328 27.4382 18.7108L22.0764 20.7215C21.3278 21.0022 20.9535 21.1426 20.6777 21.3856C20.434 21.6004 20.2463 21.8713 20.1308 22.1748C20 22.5184 20 22.9182 20 23.7177V28.5001C20 33.4086 25.354 36.9785 27.302 38.115Z" stroke="#039855" stroke-width="2" stroke-linecap="round" stroke-linejoin="round"/>
<rect x="4" y="4.5" width="48" height="48" rx="24" stroke="#ECFDF3" stroke-width="8"/>
</svg>
