<svg width="56" height="57" viewBox="0 0 56 57" fill="none" xmlns="http://www.w3.org/2000/svg">
<rect x="4" y="4.5" width="48" height="48" rx="24" fill="#F4EBFF"/>
<path d="M37.5 34.5L30.8571 28.5M25.1429 28.5L18.5 34.5M18 23.5L26.1649 29.2154C26.8261 29.6783 27.1567 29.9097 27.5163 29.9993C27.8339 30.0785 28.1661 30.0785 28.4837 29.9993C28.8433 29.9097 29.1739 29.6783 29.8351 29.2154L38 23.5M22.8 36.5H33.2C34.8802 36.5 35.7202 36.5 36.362 36.173C36.9265 35.8854 37.3854 35.4265 37.673 34.862C38 34.2202 38 33.3802 38 31.7V25.3C38 23.6198 38 22.7798 37.673 22.138C37.3854 21.5735 36.9265 21.1146 36.362 20.827C35.7202 20.5 34.8802 20.5 33.2 20.5H22.8C21.1198 20.5 20.2798 20.5 19.638 20.827C19.0735 21.1146 18.6146 21.5735 18.327 22.138C18 22.7798 18 23.6198 18 25.3V31.7C18 33.3802 18 34.2202 18.327 34.862C18.6146 35.4265 19.0735 35.8854 19.638 36.173C20.2798 36.5 21.1198 36.5 22.8 36.5Z" stroke="#7F56D9" stroke-width="2" stroke-linecap="round" stroke-linejoin="round"/>
<rect x="4" y="4.5" width="48" height="48" rx="24" stroke="#F9F5FF" stroke-width="8"/>
</svg>
