<svg width="16" height="17" viewBox="0 0 16 17" fill="none" xmlns="http://www.w3.org/2000/svg">
<path d="M12.4713 4.9714C12.7317 4.71105 12.7317 4.28894 12.4713 4.02859C12.211 3.76824 11.7889 3.76824 11.5285 4.02859L7.99992 7.55719L4.47132 4.02859C4.21097 3.76824 3.78886 3.76824 3.52851 4.02859C3.26816 4.28894 3.26816 4.71105 3.52851 4.9714L7.05711 8.5L3.52851 12.0286C3.26816 12.2889 3.26816 12.7111 3.52851 12.9714C3.78886 13.2318 4.21097 13.2318 4.47132 12.9714L7.99992 9.44281L11.5285 12.9714C11.7889 13.2318 12.211 13.2318 12.4713 12.9714C12.7317 12.7111 12.7317 12.2889 12.4713 12.0286L8.94273 8.5L12.4713 4.9714Z" fill="black"/>
</svg>
