<svg width="20" height="21" viewBox="0 0 20 21" fill="none" xmlns="http://www.w3.org/2000/svg">
<path d="M4.16602 13C3.38945 13 3.00116 13 2.69488 12.8731C2.2865 12.7039 1.96204 12.3795 1.79288 11.9711C1.66602 11.6648 1.66602 11.2765 1.66602 10.5V4.83329C1.66602 3.89987 1.66602 3.43316 1.84767 3.07664C2.00746 2.76304 2.26243 2.50807 2.57603 2.34828C2.93255 2.16663 3.39926 2.16663 4.33268 2.16663H9.99935C10.7759 2.16663 11.1642 2.16663 11.4705 2.29349C11.8789 2.46265 12.2033 2.78711 12.3725 3.19549C12.4993 3.50177 12.4993 3.89006 12.4993 4.66663M10.166 18.8333H15.666C16.5994 18.8333 17.0661 18.8333 17.4227 18.6516C17.7363 18.4918 17.9912 18.2369 18.151 17.9233C18.3327 17.5668 18.3327 17.1 18.3327 16.1666V10.6666C18.3327 9.73321 18.3327 9.2665 18.151 8.90998C17.9912 8.59637 17.7363 8.3414 17.4227 8.18162C17.0661 7.99996 16.5994 7.99996 15.666 7.99996H10.166C9.23259 7.99996 8.76588 7.99996 8.40937 8.18162C8.09576 8.3414 7.84079 8.59637 7.68101 8.90998C7.49935 9.2665 7.49935 9.73321 7.49935 10.6666V16.1666C7.49935 17.1 7.49935 17.5668 7.68101 17.9233C7.84079 18.2369 8.09576 18.4918 8.40937 18.6516C8.76588 18.8333 9.2326 18.8333 10.166 18.8333Z" stroke="#667085" stroke-width="1.66667" stroke-linecap="round" stroke-linejoin="round"/>
</svg>
