<svg width="56" height="56" viewBox="0 0 56 56" fill="none" xmlns="http://www.w3.org/2000/svg">
<rect x="4" y="4" width="48" height="48" rx="24" fill="#D1FADF"/>
<path d="M36.5 23.2778L28 28M28 28L19.5 23.2778M28 28L28 37.5M30 36.8889L28.777 37.5683C28.4934 37.7259 28.3516 37.8047 28.2015 37.8356C28.0685 37.8629 27.9315 37.8629 27.7986 37.8356C27.6484 37.8047 27.5066 37.7259 27.223 37.5683L19.823 33.4572C19.5235 33.2908 19.3737 33.2076 19.2646 33.0893C19.1682 32.9846 19.0951 32.8605 19.0505 32.7253C19 32.5725 19 32.4012 19 32.0586V23.9415C19 23.5988 19 23.4275 19.0505 23.2747C19.0951 23.1395 19.1682 23.0154 19.2646 22.9108C19.3737 22.7924 19.5234 22.7092 19.823 22.5428L27.223 18.4317C27.5066 18.2742 27.6484 18.1954 27.7986 18.1645C27.9315 18.1371 28.0685 18.1371 28.2015 18.1645C28.3516 18.1954 28.4934 18.2741 28.777 18.4317L36.177 22.5428C36.4766 22.7092 36.6263 22.7924 36.7354 22.9108C36.8318 23.0154 36.9049 23.1395 36.9495 23.2747C37 23.4275 37 23.5988 37 23.9415L37 28.5M23.5 20.5L32.5 25.5M32 34L34 36L38 32" stroke="#039855" stroke-width="2" stroke-linecap="round" stroke-linejoin="round"/>
<rect x="4" y="4" width="48" height="48" rx="24" stroke="#ECFDF3" stroke-width="8"/>
</svg>
