<svg width="56" height="56" viewBox="0 0 56 56" fill="none" xmlns="http://www.w3.org/2000/svg">
<rect x="4" y="4" width="48" height="48" rx="24" fill="#FEE4E2"/>
<path d="M17.6834 23.4558C17.7798 21.9717 18.973 20.8087 20.4583 20.7351C22.6093 20.6285 25.6836 20.5 28 20.5C30.3164 20.5 33.3907 20.6285 35.5417 20.7351C37.027 20.8087 38.2202 21.9717 38.3166 23.4558C38.409 24.8777 38.5 26.6272 38.5 28C38.5 29.3728 38.409 31.1223 38.3166 32.5442C38.2202 34.0283 37.027 35.1913 35.5417 35.2649C33.3907 35.3715 30.3164 35.5 28 35.5C25.6836 35.5 22.6093 35.3715 20.4583 35.2649C18.973 35.1913 17.7798 34.0283 17.6834 32.5442C17.591 31.1223 17.5 29.3728 17.5 28C17.5 26.6272 17.591 24.8777 17.6834 23.4558Z" fill="#FC0D1B"/>
<path d="M25.75 25V31L31.75 28L25.75 25Z" fill="white"/>
<rect x="4" y="4" width="48" height="48" rx="24" stroke="#FEF3F2" stroke-width="8"/>
</svg>
