<svg width="21" height="20" viewBox="0 0 21 20" fill="none" xmlns="http://www.w3.org/2000/svg">
<path fill-rule="evenodd" clip-rule="evenodd" d="M10.5082 1.11365C10.7935 1.03642 11.0941 1.03642 11.3794 1.11365C11.7105 1.20331 11.9893 1.42219 12.2118 1.59688C12.2331 1.61356 12.2538 1.62984 12.274 1.64556L17.9259 6.0415C17.9477 6.05841 17.9693 6.07517 17.9907 6.09178C18.3045 6.33535 18.581 6.54994 18.7871 6.82853C18.9679 7.07301 19.1026 7.34844 19.1846 7.64127C19.278 7.97495 19.2776 8.32496 19.2772 8.72225C19.2772 8.74935 19.2771 8.77668 19.2771 8.80423V14.8655C19.2771 15.3048 19.2772 15.6837 19.2517 15.9959C19.2247 16.3253 19.1653 16.653 19.0047 16.9683C18.765 17.4387 18.3825 17.8212 17.9121 18.0609C17.5968 18.2215 17.2691 18.281 16.9397 18.3079C16.6275 18.3334 16.2486 18.3334 15.8093 18.3333H6.07833C5.63905 18.3334 5.26008 18.3334 4.94794 18.3079C4.61849 18.281 4.29081 18.2215 3.97549 18.0609C3.50509 17.8212 3.12263 17.4387 2.88295 16.9683C2.72229 16.653 2.66286 16.3253 2.63594 15.9959C2.61044 15.6837 2.61045 15.3048 2.61047 14.8655L2.61047 8.80423C2.61047 8.77668 2.61044 8.74935 2.61041 8.72224C2.60998 8.32496 2.6096 7.97495 2.703 7.64127C2.78497 7.34844 2.91967 7.07301 3.1005 6.82853C3.30655 6.54994 3.58306 6.33536 3.89692 6.09179C3.91834 6.07517 3.93992 6.05842 3.96168 6.0415L9.6136 1.64556C9.63381 1.62984 9.65454 1.61356 9.67579 1.59688C9.89829 1.42219 10.1771 1.20331 10.5082 1.11365Z" fill="#D4D4D5"/>
</svg>
