<svg width="21" height="20" viewBox="0 0 21 20" fill="none" xmlns="http://www.w3.org/2000/svg">
<path fill-rule="evenodd" clip-rule="evenodd" d="M11.7757 1.6269C11.7767 1.64678 11.7767 1.65774 11.7767 1.67966L11.7767 5.35993C11.7767 5.57025 11.7766 5.77508 11.7908 5.94854C11.8064 6.13904 11.8431 6.36382 11.9584 6.59C12.1181 6.90361 12.3731 7.15857 12.6867 7.31836C12.9129 7.43361 13.1377 7.47033 13.3282 7.4859C13.5016 7.50007 13.7065 7.50005 13.9168 7.50002L17.5971 7.50002C17.619 7.50002 17.6299 7.50002 17.6497 7.50097C18.0613 7.5206 18.423 7.8825 18.4424 8.29403C18.4434 8.31388 18.4434 8.32035 18.4434 8.33329V14.3678C18.4434 15.0386 18.4434 15.5922 18.4065 16.0432C18.3683 16.5116 18.2861 16.9422 18.08 17.3466C17.7605 17.9739 17.2505 18.4838 16.6233 18.8034C16.2189 19.0094 15.7883 19.0916 15.3199 19.1299C14.8689 19.1667 14.3153 19.1667 13.6445 19.1667H8.24226C7.57146 19.1667 7.01783 19.1667 6.56684 19.1299C6.09842 19.0916 5.66784 19.0094 5.26339 18.8034C4.63619 18.4838 4.12625 17.9739 3.80667 17.3466C3.6006 16.9422 3.51846 16.5116 3.48019 16.0432C3.44334 15.5922 3.44335 15.0386 3.44336 14.3678V5.63225C3.44335 4.96145 3.44334 4.40781 3.48019 3.95682C3.51846 3.48841 3.6006 3.05782 3.80667 2.65338C4.12625 2.02617 4.63619 1.51624 5.26339 1.19666C5.66784 0.990582 6.09842 0.908445 6.56684 0.870174C7.01783 0.833327 7.57145 0.833335 8.24224 0.833344H10.9434C10.9564 0.833339 10.9629 0.833336 10.9827 0.834276C11.3942 0.853743 11.7561 1.21542 11.7757 1.6269Z" fill="white"/>
<path d="M17.1672 5.7719C17.067 5.83334 16.9447 5.83334 16.7 5.83334L14.11 5.8333C13.8767 5.8333 13.76 5.8333 13.6709 5.78788C13.5925 5.74794 13.5287 5.68419 13.4888 5.60579C13.4434 5.51666 13.4434 5.39999 13.4434 5.16665L13.4434 2.57671C13.4434 2.33202 13.4434 2.20968 13.5048 2.10946C13.5916 1.96793 13.796 1.88331 13.9574 1.92211C14.0717 1.94959 14.1514 2.02937 14.3108 2.18894L17.0878 4.96587C17.2473 5.12528 17.3271 5.20499 17.3546 5.31929C17.3934 5.48071 17.3088 5.68513 17.1672 5.7719Z" fill="white"/>
</svg>
