<svg width="12" height="14" viewBox="0 0 12 14" fill="none" xmlns="http://www.w3.org/2000/svg">
<path fill-rule="evenodd" clip-rule="evenodd" d="M3.85755 8.66666C5.28599 8.66698 6.71443 8.66698 8.14287 8.66666C8.62733 8.66656 8.95744 8.66648 9.24571 8.71732C10.6257 8.96065 11.7062 10.0411 11.9496 11.4212C12.0004 11.7095 12.0003 12.0396 12.0002 12.524C12.0002 12.6296 12.0034 12.7359 11.985 12.8403C11.912 13.2543 11.5879 13.5785 11.1739 13.6515C11.0831 13.6675 10.9874 13.667 10.9399 13.6667C7.64711 13.6491 4.35332 13.6491 1.06056 13.6667C1.01298 13.667 0.917347 13.6675 0.826566 13.6515C0.412555 13.5785 0.0884089 13.2543 0.0154073 12.8403C-0.00300785 12.7359 0.000228438 12.6296 0.000204969 12.524C9.81578e-05 12.0396 2.53618e-05 11.7095 0.0508562 11.4212C0.294195 10.0411 1.37468 8.96065 2.75472 8.71732C3.04299 8.66648 3.3731 8.66656 3.85755 8.66666Z" fill="#344054"/>
<path fill-rule="evenodd" clip-rule="evenodd" d="M2.33355 4.00001C2.33355 1.97497 3.97517 0.333344 6.00021 0.333344C8.02526 0.333344 9.66688 1.97497 9.66688 4.00001C9.66688 6.02505 8.02526 7.66668 6.00021 7.66668C3.97517 7.66668 2.33355 6.02505 2.33355 4.00001Z" fill="#344054"/>
</svg>
