<svg width="48" height="44" viewBox="0 0 48 44" fill="none" xmlns="http://www.w3.org/2000/svg">
<path d="M39.6836 15.4508V29.9171C39.6836 32.0896 38.5235 34.0964 36.6433 35.1812L22.8821 43.1269C21.0019 44.2147 18.6817 44.2147 16.8015 43.1269L3.0403 35.1812C1.16008 34.0964 0 32.0896 0 29.9171V19.7928V17.075V14.0256C0 11.8531 1.16008 9.84633 3.0403 8.76158L16.8015 0.815819C18.6817 -0.27194 21.0019 -0.27194 22.8821 0.815819L27.5465 3.5096L27.5345 3.51563L36.0708 8.43314C35.3959 9.18041 34.9831 10.1718 34.9831 11.2595C34.9831 13.5887 36.8723 15.478 39.2015 15.478C39.3642 15.478 39.5249 15.4689 39.6836 15.4508V15.4508Z" fill="url(#paint0_linear_209_90667)"/>
<path d="M10.4798 28.0009H16.8798C17.3659 28.0009 17.8791 28.0009 18.4195 28.0009C18.9579 28.0009 19.4701 27.9688 19.9562 27.9045C20.4424 27.8422 20.8652 27.7207 21.2248 27.5399C21.5844 27.3611 21.8274 27.0829 21.954 26.7053C22.0986 26.2372 22.1127 25.9128 21.9962 25.732C21.8776 25.5532 21.6296 25.3644 21.2519 25.1655C20.9285 25.1836 20.5328 25.1926 20.0647 25.1926C19.5967 25.1926 19.0975 25.1796 18.5672 25.1535C18.0348 25.1254 17.4945 25.0802 16.9461 25.0179C16.3977 24.9546 15.8975 24.8461 15.4334 24.7196C14.1318 24.367 13.2429 22.7821 13.0982 22.3844C12.9556 21.9886 12.8431 21.5658 12.7608 21.1158C12.6804 20.6658 12.6543 20.1888 12.6824 19.6845C12.7085 19.1803 12.812 18.6671 12.9928 18.1448C12.4886 18.3437 12.0336 18.5737 11.6278 18.8348C11.224 19.096 10.8866 19.3973 10.6154 19.7388C10.5611 19.793 10.5159 19.8201 10.4798 19.8201C10.3894 19.8744 10.2909 19.8784 10.1845 19.8322C10.076 19.788 10.0399 19.7117 10.076 19.6032C10.6706 18.4702 11.2642 17.4628 11.8568 16.581C12.4514 15.6991 13.1354 14.9569 13.9088 14.3542C14.6822 13.7516 15.6002 13.2926 16.6628 12.9772C17.7255 12.6618 19.0392 12.5132 20.6041 12.5313H30.4873L29.3242 17.3644L20.6583 17.3915C20.0296 17.4638 19.4852 17.5894 19.0252 17.7682C18.5672 17.949 18.2478 18.2463 18.067 18.6601C17.8681 19.11 17.8279 19.4837 17.9464 19.781C18.063 20.0763 18.292 20.3053 18.6334 20.468C18.7781 20.5403 18.9227 20.5895 19.0673 20.6156C19.21 20.6437 19.3807 20.6618 19.5796 20.6699C19.7765 20.6799 20.0105 20.6849 20.2817 20.6849C20.5508 20.6849 20.8743 20.6849 21.2519 20.6849C22.8549 20.6849 24.0883 20.8105 24.9521 21.0616C25.8159 21.3147 26.4637 21.7466 26.8956 22.3572C27.2371 22.8253 27.4259 23.4601 27.4621 24.2616C27.4982 25.0631 27.3636 25.8957 27.0583 26.7595C26.6967 27.8563 26.2146 28.8687 25.612 29.7968C25.0093 30.7228 24.1948 31.4289 23.1683 31.9151C22.5395 32.2204 21.7119 32.4323 20.6854 32.5508C19.6589 32.6673 18.3361 32.7256 16.7171 32.7256H9.3197L10.4798 28.0009Z" fill="white"/>
<path d="M39.2015 8.427C40.7654 8.427 42.0339 9.69555 42.0339 11.2594C42.0339 12.8232 40.7654 14.0918 39.2015 14.0918C37.6377 14.0918 36.3691 12.8232 36.3691 11.2594C36.3691 9.69555 37.6377 8.427 39.2015 8.427Z" fill="url(#paint1_linear_209_90667)"/>
<path d="M46.3126 10.5967C47.2437 10.5967 48 11.353 48 12.2841C48 13.2151 47.2437 13.9714 46.3126 13.9714C45.3816 13.9714 44.6252 13.2151 44.6252 12.2841C44.6252 11.353 45.3816 10.5967 46.3126 10.5967Z" fill="url(#paint2_linear_209_90667)"/>
<path d="M43.5104 4.41968C44.1431 4.41968 44.6554 4.93192 44.6554 5.56469C44.6554 6.19746 44.1431 6.7097 43.5104 6.7097C42.8776 6.7097 42.3654 6.19746 42.3654 5.56469C42.3654 4.93192 42.8776 4.41968 43.5104 4.41968Z" fill="url(#paint3_linear_209_90667)"/>
<defs>
<linearGradient id="paint0_linear_209_90667" x1="47.1925" y1="15.1314" x2="38.0776" y2="35.8441" gradientUnits="userSpaceOnUse">
<stop stop-color="#FF9C49"/>
<stop offset="1" stop-color="#FF0D2B"/>
</linearGradient>
<linearGradient id="paint1_linear_209_90667" x1="43.6369" y1="11.0093" x2="34.281" y2="22.143" gradientUnits="userSpaceOnUse">
<stop stop-color="#FF9C49"/>
<stop offset="1" stop-color="#FF0D2B"/>
</linearGradient>
<linearGradient id="paint2_linear_209_90667" x1="48.9733" y1="12.1515" x2="43.3989" y2="18.7835" gradientUnits="userSpaceOnUse">
<stop stop-color="#FF9C49"/>
<stop offset="1" stop-color="#FF0D2B"/>
</linearGradient>
<linearGradient id="paint3_linear_209_90667" x1="45.3303" y1="5.48634" x2="41.5488" y2="9.98804" gradientUnits="userSpaceOnUse">
<stop stop-color="#FF9C49"/>
<stop offset="1" stop-color="#FF0D2B"/>
</linearGradient>
</defs>
</svg>
