<svg width="223" height="44" viewBox="0 0 223 44" fill="none" xmlns="http://www.w3.org/2000/svg">
<path fill-rule="evenodd" clip-rule="evenodd" d="M23.8672 34.3738C19.8097 37.6782 13.8414 37.0685 10.537 33.011C8.95219 31.0665 7.50509 27.9896 8.32277 23.845C9.01401 20.3523 10.9641 18.7731 10.4555 16.8792C12.6023 18.7675 12.3719 21.0295 11.8998 22.9009C14.2657 20.4703 12.7821 18.6467 13.434 15.5389C14.0691 12.5014 15.8533 9.01989 20.7286 7.09509C17.2274 11.9169 20.0598 17.7194 21.0742 19.3772C21.136 17.829 21.9846 14.4065 24.3253 13.3162C22.7011 18.5736 26.4945 20.6895 27.1773 25.1797C27.8348 28.5067 26.68 32.0809 23.8672 34.3738V34.3738ZM21.7682 28.2144C22.0043 25.9103 20.3267 23.8506 18.0226 23.6174C15.7185 23.3814 13.6588 25.0589 13.4256 27.363C13.1895 29.6672 14.8671 31.724 17.1712 31.9601C19.4753 32.1961 21.5322 30.5186 21.7682 28.2144Z" fill="url(#paint0_linear_729_66568)"/>
<path d="M23.7773 30.6787C23.4148 34.2164 20.2536 36.7931 16.7132 36.4306C13.1755 36.0709 10.5988 32.907 10.9613 29.3693C11.3209 25.8316 14.4849 23.2549 18.0226 23.6174C15.7184 23.3813 13.6588 25.0589 13.4255 27.363C13.1895 29.6671 14.867 31.724 17.1712 31.96C19.4753 32.1961 21.5322 30.5185 21.7682 28.2144C22.0042 25.9103 20.3267 23.8506 18.0226 23.6174C21.5603 23.977 24.137 27.1382 23.7773 30.6787Z" fill="url(#paint1_linear_729_66568)"/>
<path d="M43.8545 16.4701C42.501 16.5131 41.3551 16.9607 40.417 17.8129C39.4717 18.6508 38.999 19.6856 38.999 20.9174C38.999 22.1348 39.4717 23.1804 40.417 24.0541C41.3623 24.9135 42.5081 25.3467 43.8545 25.3539H53.3398C53.7266 25.3539 54.0596 25.4828 54.3389 25.7406C54.6182 25.9913 54.7578 26.2992 54.7578 26.6644C54.7578 27.0153 54.6217 27.3197 54.3496 27.5775C54.0775 27.8067 53.7409 27.932 53.3398 27.9535H44.1445C43.7578 27.9535 43.4248 27.8246 43.1455 27.5668C42.8662 27.309 42.7266 27.001 42.7266 26.6429V26.6215H38.9668C38.9668 27.889 39.4538 28.9668 40.4277 29.8549C41.416 30.7429 42.5977 31.1869 43.9727 31.1869H53.7158C55.1123 31.1869 56.2904 30.7429 57.25 29.8549C58.2383 28.9668 58.7288 27.889 58.7217 26.6215C58.7432 25.3539 58.2562 24.2761 57.2607 23.3881C56.2939 22.4857 55.1123 22.0381 53.7158 22.0453C52.7347 22.0238 51.2129 22.0238 49.1504 22.0453C47.0879 22.0524 45.5625 22.056 44.5742 22.056C44.2305 22.056 43.9404 21.945 43.7041 21.723C43.4678 21.501 43.346 21.2325 43.3389 20.9174C43.3389 20.6023 43.457 20.3373 43.6934 20.1224C43.9368 19.8789 44.2305 19.7679 44.5742 19.7894H52.9424C53.3076 19.7679 53.6048 19.8754 53.834 20.1117C54.0775 20.3265 54.1992 20.5951 54.1992 20.9174C54.2135 20.9174 54.21 20.9388 54.1885 20.9818H58.0986V20.9174C58.0986 19.6856 57.626 18.6364 56.6807 17.7699C55.7425 16.9034 54.5967 16.4701 53.2432 16.4701H43.8545ZM64.8984 18.3392C63.7526 18.3392 62.7607 18.7116 61.9229 19.4564C61.1208 20.2012 60.709 21.1036 60.6875 22.1635V27.3734C60.6875 28.4261 61.0957 29.3249 61.9121 30.0697C62.7428 30.8145 63.7383 31.1869 64.8984 31.1869H74.3945C75.5762 31.1869 76.568 30.8181 77.3701 30.0804C78.208 29.3285 78.6198 28.4261 78.6055 27.3734V26.4066H74.8135V26.7719C74.8206 27.1228 74.6846 27.4271 74.4053 27.6849C74.1403 27.9141 73.8037 28.0394 73.3955 28.0609H65.8975C65.5107 28.0394 65.1777 27.9141 64.8984 27.6849C64.6191 27.4271 64.4795 27.1228 64.4795 26.7719V22.7543C64.4795 22.389 64.6156 22.0847 64.8877 21.8412C65.1742 21.5834 65.5107 21.458 65.8975 21.4652H73.3955C73.7894 21.458 74.1224 21.5834 74.3945 21.8412C74.6738 22.0847 74.8135 22.389 74.8135 22.7543V23.1302H78.6055V22.1635C78.627 21.1036 78.2188 20.2012 77.3809 19.4564C76.5645 18.7116 75.569 18.3392 74.3945 18.3392H64.8984ZM80.582 18.3392V31.1869H84.374V26.6537H89.7988L93.5693 31.1869H98.0273L93.9131 26.557C94.9801 26.3636 95.8682 25.8946 96.5771 25.1498C97.2861 24.3763 97.6406 23.4919 97.6406 22.4965C97.6406 21.3291 97.193 20.348 96.2979 19.5531C95.417 18.7439 94.3392 18.3392 93.0645 18.3392H80.582ZM84.374 21.4652H92.7314C93.0967 21.458 93.376 21.5511 93.5693 21.7445C93.777 21.9379 93.8809 22.1921 93.8809 22.5072C93.8809 22.8223 93.777 23.0765 93.5693 23.2699C93.376 23.4633 93.0967 23.5599 92.7314 23.5599C91.915 23.5599 89.1292 23.5599 84.374 23.5599V21.4652ZM99.9609 18.3392V31.1869H103.742V18.3392H99.9609ZM105.676 18.3392V31.1869H109.457V27.2767H118.201C119.562 27.2767 120.718 26.8435 121.671 25.9769C122.638 25.0961 123.118 24.0433 123.11 22.8187C123.118 21.5798 122.638 20.5235 121.671 19.6498C120.711 18.7761 119.555 18.3392 118.201 18.3392H105.676ZM109.457 21.4652H117.879C118.323 21.458 118.685 21.5834 118.964 21.8412C119.243 22.0847 119.383 22.4105 119.383 22.8187C119.383 23.2126 119.243 23.5385 118.964 23.7963C118.685 24.0254 118.323 24.1508 117.879 24.1722H109.457V21.4652ZM125.055 18.3392V21.4652H131.543V31.1869H135.324V21.4652H141.812V18.3392H125.055ZM143.746 18.3392V31.1869H147.527V26.1488H157.26V31.1869H161.041V18.3392H157.26V23.0228H147.527V18.3392H143.746ZM167.175 18.3392C166.036 18.3392 165.048 18.7116 164.21 19.4564C163.408 20.2012 162.996 21.1036 162.975 22.1635V27.3734C162.975 28.4261 163.383 29.3249 164.199 30.0697C165.037 30.8145 166.029 31.1869 167.175 31.1869H176.961C178.143 31.1869 179.134 30.8181 179.937 30.0804C180.774 29.3285 181.186 28.4261 181.172 27.3734V22.1635C181.193 21.1036 180.785 20.2012 179.947 19.4564C179.131 18.7116 178.135 18.3392 176.961 18.3392H167.175ZM168.185 21.4652H175.962C176.356 21.458 176.689 21.5834 176.961 21.8412C177.24 22.0847 177.38 22.389 177.38 22.7543V26.7719C177.387 27.1228 177.251 27.4271 176.972 27.6849C176.707 27.9141 176.37 28.0394 175.962 28.0609H168.185C167.798 28.0394 167.465 27.9141 167.186 27.6849C166.906 27.4271 166.767 27.1228 166.767 26.7719V22.7543C166.767 22.389 166.903 22.0847 167.175 21.8412C167.461 21.5834 167.798 21.458 168.185 21.4652ZM183.148 18.3392V31.1869H186.94V23.6459L191.731 30.059H194.879L199.681 23.6459V31.1869H203.473V18.3392H199.627L193.311 26.9652L186.983 18.3392H183.148ZM205.406 18.3392V31.1869H221.24V28.0609H209.209V26.2455H219.64V23.1732H209.209V21.4652H221.24V18.3392H205.406Z" fill="white"/>
<defs>
<linearGradient id="paint0_linear_729_66568" x1="17.7219" y1="36.5009" x2="17.7219" y2="7.09509" gradientUnits="userSpaceOnUse">
<stop stop-color="#F7982B"/>
<stop offset="1" stop-color="#F0562B"/>
</linearGradient>
<linearGradient id="paint1_linear_729_66568" x1="11.9054" y1="23.1987" x2="24.0976" y2="24.4435" gradientUnits="userSpaceOnUse">
<stop stop-color="#F0562B"/>
<stop offset="1" stop-color="#F7982B"/>
</linearGradient>
</defs>
</svg>
