<?xml version="1.0" encoding="utf-8"?>
<!-- Generator: Adobe Illustrator 26.5.0, SVG Export Plug-In . SVG Version: 6.00 Build 0)  -->
<svg version="1.1" id="Layer_1" xmlns="http://www.w3.org/2000/svg" xmlns:xlink="http://www.w3.org/1999/xlink" x="0px" y="0px"
	 viewBox="0 0 500 500" style="enable-background:new 0 0 500 500;" xml:space="preserve">
<style type="text/css">
	.st0{fill:#FFFFFF;}
</style>
<g>
	<polygon class="st0" points="460.4,72.6 384.2,72.6 310.7,200.1 301.6,215.8 350.3,264.2 380.7,211.5 451.8,88.3 451.4,88.3 	"/>
	<polygon class="st0" points="198.4,284.2 149.7,235.8 119.3,288.5 48.2,411.7 48.6,411.7 39.6,427.4 115.8,427.4 189.3,299.9 	"/>
	<path class="st0" d="M288.2,239.8l-18.9-18.6c-13-12.8-15.7-32.7-6.6-48.5l57.3-100.1h-76.2l-46.7,80.8
		c-20.1,34.7-14.1,78.6,14.5,106.7l0,0l18.9,18.6c13,12.8,15.7,32.7,6.6,48.5l-57.3,100.1h76.2l46.7-80.8
		C322.8,311.8,316.8,267.9,288.2,239.8L288.2,239.8z"/>
</g>
</svg>
