<svg width="211" height="38" viewBox="0 0 211 38" fill="none" xmlns="http://www.w3.org/2000/svg">
<path d="M0.966797 13.2832V28H4.98438V22.0703H16.876V28H20.8936V13.2832H16.876V18.7939H4.98438V13.2832H0.966797ZM30.3682 15.1523L22.1934 28H26.2969L28.0479 25.2607H36.2871L38.0166 28H42.1201L33.9561 15.1523H30.3682ZM32.1729 18.7725L34.3965 22.2744H29.9385L32.1729 18.7725ZM47.6309 15.1523C46.485 15.1523 45.4932 15.5247 44.6553 16.2695C43.8532 17.0143 43.4414 17.9167 43.4199 18.9766V24.1865C43.4199 25.2393 43.8281 26.138 44.6445 26.8828C45.4753 27.6276 46.4707 28 47.6309 28H57.127C58.3086 28 59.3005 27.6312 60.1025 26.8936C60.9404 26.1416 61.3522 25.2393 61.3379 24.1865V23.2197H57.5459V23.585C57.5531 23.9359 57.417 24.2402 57.1377 24.498C56.8727 24.7272 56.5361 24.8525 56.1279 24.874H48.6299C48.2432 24.8525 47.9102 24.7272 47.6309 24.498C47.3516 24.2402 47.2119 23.9359 47.2119 23.585V19.5674C47.2119 19.2021 47.348 18.8978 47.6201 18.6543C47.9066 18.3965 48.2432 18.2712 48.6299 18.2783H56.1279C56.5218 18.2712 56.8548 18.3965 57.127 18.6543C57.4062 18.8978 57.5459 19.2021 57.5459 19.5674V19.9434H61.3379V18.9766C61.3594 17.9167 60.9512 17.0143 60.1133 16.2695C59.2969 15.5247 58.3014 15.1523 57.127 15.1523H47.6309ZM67.5146 15.1523C66.376 15.1523 65.3877 15.5247 64.5498 16.2695C63.7477 17.0143 63.3359 17.9167 63.3145 18.9766V24.1865C63.3145 25.2393 63.7227 26.138 64.5391 26.8828C65.377 27.6276 66.3688 28 67.5146 28H77.3008C78.4824 28 79.4743 27.6312 80.2764 26.8936C81.1143 26.1416 81.526 25.2393 81.5117 24.1865V18.9766C81.5332 17.9167 81.125 17.0143 80.2871 16.2695C79.4707 15.5247 78.4753 15.1523 77.3008 15.1523H67.5146ZM68.5244 18.2783H76.3018C76.6956 18.2712 77.0286 18.3965 77.3008 18.6543C77.5801 18.8978 77.7197 19.2021 77.7197 19.5674V23.585C77.7269 23.9359 77.5908 24.2402 77.3115 24.498C77.0465 24.7272 76.71 24.8525 76.3018 24.874H68.5244C68.1377 24.8525 67.8047 24.7272 67.5254 24.498C67.2461 24.2402 67.1064 23.9359 67.1064 23.585V19.5674C67.1064 19.2021 67.2425 18.8978 67.5146 18.6543C67.8011 18.3965 68.1377 18.2712 68.5244 18.2783ZM87.7959 15.1523H87.7852C86.6107 15.1953 85.6045 15.5964 84.7666 16.3555C83.9359 17.1074 83.5205 18.0205 83.5205 19.0947C83.5277 20.1833 83.9502 21.1143 84.7881 21.8877C85.6475 22.6611 86.668 23.0479 87.8496 23.0479H95.9062C96.1927 23.0264 96.4326 23.1159 96.626 23.3164C96.8265 23.5026 96.9268 23.7246 96.9268 23.9824C96.9339 24.2402 96.8372 24.4587 96.6367 24.6377C96.4362 24.8167 96.1927 24.9062 95.9062 24.9062H88.0859C87.8066 24.9062 87.5667 24.8167 87.3662 24.6377C87.1729 24.4443 87.0726 24.2223 87.0654 23.9717V23.8857H83.4883V23.9502C83.4883 25.0674 83.9215 26.0234 84.7881 26.8184C85.6546 27.6061 86.7002 28 87.9248 28H96.2285C97.4603 28 98.5059 27.6061 99.3652 26.8184C100.253 26.0234 100.687 25.0674 100.665 23.9502C100.687 22.8258 100.253 21.8698 99.3652 21.082C98.5059 20.2871 97.4603 19.8896 96.2285 19.8896C95.3978 19.8682 94.1051 19.8682 92.3506 19.8896C90.596 19.8968 89.2998 19.9004 88.4619 19.9004C88.2256 19.9004 88.0215 19.8252 87.8496 19.6748C87.6777 19.5101 87.5918 19.3203 87.5918 19.1055C87.5918 18.8763 87.6742 18.6901 87.8389 18.5469C88.0179 18.3893 88.2256 18.3105 88.4619 18.3105L95.5625 18.2998C95.806 18.2998 96.0137 18.3786 96.1855 18.5361C96.3574 18.6722 96.4398 18.8584 96.4326 19.0947C96.4326 19.1162 96.4326 19.1413 96.4326 19.1699H100.128V19.0947C100.128 17.999 99.7054 17.0716 98.8604 16.3125C98.0225 15.5391 97.0055 15.1523 95.8096 15.1523H87.8496H87.8389H87.7959ZM106.842 15.1523C105.696 15.1523 104.704 15.5247 103.866 16.2695C103.064 17.0143 102.652 17.9167 102.631 18.9766V24.1865C102.631 25.2393 103.039 26.138 103.855 26.8828C104.686 27.6276 105.682 28 106.842 28H116.338C117.52 28 118.511 27.6312 119.313 26.8936C120.151 26.1416 120.563 25.2393 120.549 24.1865V23.2197H116.757V23.585C116.764 23.9359 116.628 24.2402 116.349 24.498C116.084 24.7272 115.747 24.8525 115.339 24.874H107.841C107.454 24.8525 107.121 24.7272 106.842 24.498C106.562 24.2402 106.423 23.9359 106.423 23.585V19.5674C106.423 19.2021 106.559 18.8978 106.831 18.6543C107.118 18.3965 107.454 18.2712 107.841 18.2783H115.339C115.733 18.2712 116.066 18.3965 116.338 18.6543C116.617 18.8978 116.757 19.2021 116.757 19.5674V19.9434H120.549V18.9766C120.57 17.9167 120.162 17.0143 119.324 16.2695C118.508 15.5247 117.512 15.1523 116.338 15.1523H106.842ZM122.525 15.1523V28H126.317V23.4668H131.742L135.513 28H139.971L135.856 23.3701C136.924 23.1768 137.812 22.7077 138.521 21.9629C139.229 21.1895 139.584 20.305 139.584 19.3096C139.584 18.1423 139.136 17.1611 138.241 16.3662C137.36 15.557 136.283 15.1523 135.008 15.1523H122.525ZM126.317 18.2783H134.675C135.04 18.2712 135.319 18.3643 135.513 18.5576C135.72 18.751 135.824 19.0052 135.824 19.3203C135.824 19.6354 135.72 19.8896 135.513 20.083C135.319 20.2764 135.04 20.373 134.675 20.373C133.858 20.373 131.073 20.373 126.317 20.373V18.2783ZM141.904 15.1523V28H145.686V15.1523H141.904ZM147.619 15.1523V28H151.4V24.0898H160.145C161.505 24.0898 162.662 23.6566 163.614 22.79C164.581 21.9092 165.061 20.8564 165.054 19.6318C165.061 18.3929 164.581 17.3366 163.614 16.4629C162.655 15.5892 161.498 15.1523 160.145 15.1523H147.619ZM151.4 18.2783H159.822C160.266 18.2712 160.628 18.3965 160.907 18.6543C161.187 18.8978 161.326 19.2236 161.326 19.6318C161.326 20.0257 161.187 20.3516 160.907 20.6094C160.628 20.8385 160.266 20.9639 159.822 20.9854H151.4V18.2783ZM166.998 15.1523V18.2783H173.486V28H177.268V18.2783H183.756V15.1523H166.998ZM189.997 15.1523H189.986C188.812 15.1953 187.806 15.5964 186.968 16.3555C186.137 17.1074 185.722 18.0205 185.722 19.0947C185.729 20.1833 186.151 21.1143 186.989 21.8877C187.849 22.6611 188.869 23.0479 190.051 23.0479H198.107C198.394 23.0264 198.634 23.1159 198.827 23.3164C199.028 23.5026 199.128 23.7246 199.128 23.9824C199.135 24.2402 199.038 24.4587 198.838 24.6377C198.637 24.8167 198.394 24.9062 198.107 24.9062H190.287C190.008 24.9062 189.768 24.8167 189.567 24.6377C189.374 24.4443 189.274 24.2223 189.267 23.9717V23.8857H185.689V23.9502C185.689 25.0674 186.123 26.0234 186.989 26.8184C187.856 27.6061 188.901 28 190.126 28H198.43C199.661 28 200.707 27.6061 201.566 26.8184C202.454 26.0234 202.888 25.0674 202.866 23.9502C202.888 22.8258 202.454 21.8698 201.566 21.082C200.707 20.2871 199.661 19.8896 198.43 19.8896C197.599 19.8682 196.306 19.8682 194.552 19.8896C192.797 19.8968 191.501 19.9004 190.663 19.9004C190.427 19.9004 190.223 19.8252 190.051 19.6748C189.879 19.5101 189.793 19.3203 189.793 19.1055C189.793 18.8763 189.875 18.6901 190.04 18.5469C190.219 18.3893 190.427 18.3105 190.663 18.3105L197.764 18.2998C198.007 18.2998 198.215 18.3786 198.387 18.5361C198.559 18.6722 198.641 18.8584 198.634 19.0947C198.634 19.1162 198.634 19.1413 198.634 19.1699H202.329V19.0947C202.329 17.999 201.907 17.0716 201.062 16.3125C200.224 15.5391 199.207 15.1523 198.011 15.1523H190.051H190.04H189.997Z" fill="white"/>
</svg>
