<svg width="245" height="44" viewBox="0 0 245 44" fill="none" xmlns="http://www.w3.org/2000/svg">
<path d="M39.6836 15.4508V29.9171C39.6836 32.0896 38.5235 34.0964 36.6433 35.1812L22.8821 43.1269C21.0019 44.2147 18.6817 44.2147 16.8015 43.1269L3.0403 35.1812C1.16008 34.0964 0 32.0896 0 29.9171V19.7928V17.075V14.0256C0 11.8531 1.16008 9.84633 3.0403 8.76158L16.8015 0.815819C18.6817 -0.27194 21.0019 -0.27194 22.8821 0.815819L27.5465 3.5096L27.5345 3.51563L36.0708 8.43314C35.3959 9.18041 34.9831 10.1718 34.9831 11.2595C34.9831 13.5887 36.8723 15.478 39.2015 15.478C39.3642 15.478 39.5249 15.4689 39.6836 15.4508V15.4508Z" fill="url(#paint0_linear_209_90677)"/>
<path d="M10.4798 28.0009H16.8798C17.3659 28.0009 17.8791 28.0009 18.4195 28.0009C18.9579 28.0009 19.4701 27.9688 19.9562 27.9045C20.4424 27.8422 20.8652 27.7207 21.2248 27.5399C21.5844 27.3611 21.8274 27.0829 21.954 26.7053C22.0986 26.2372 22.1127 25.9128 21.9962 25.732C21.8776 25.5532 21.6296 25.3644 21.2519 25.1655C20.9285 25.1836 20.5328 25.1926 20.0647 25.1926C19.5967 25.1926 19.0975 25.1796 18.5672 25.1535C18.0348 25.1254 17.4945 25.0802 16.9461 25.0179C16.3977 24.9546 15.8975 24.8461 15.4334 24.7196C14.1318 24.367 13.2429 22.7821 13.0982 22.3844C12.9556 21.9886 12.8431 21.5658 12.7608 21.1158C12.6804 20.6658 12.6543 20.1888 12.6824 19.6845C12.7085 19.1803 12.812 18.6671 12.9928 18.1448C12.4886 18.3437 12.0336 18.5737 11.6278 18.8348C11.224 19.096 10.8866 19.3973 10.6154 19.7388C10.5611 19.793 10.5159 19.8201 10.4798 19.8201C10.3894 19.8744 10.2909 19.8784 10.1845 19.8322C10.076 19.788 10.0399 19.7117 10.076 19.6032C10.6706 18.4702 11.2642 17.4628 11.8568 16.581C12.4514 15.6991 13.1354 14.9569 13.9088 14.3542C14.6822 13.7516 15.6002 13.2926 16.6628 12.9772C17.7255 12.6618 19.0392 12.5132 20.6041 12.5313H30.4873L29.3242 17.3644L20.6583 17.3915C20.0296 17.4638 19.4852 17.5894 19.0252 17.7682C18.5672 17.949 18.2478 18.2463 18.067 18.6601C17.8681 19.11 17.8279 19.4837 17.9464 19.781C18.063 20.0763 18.292 20.3053 18.6334 20.468C18.7781 20.5403 18.9227 20.5895 19.0673 20.6156C19.21 20.6437 19.3807 20.6618 19.5796 20.6699C19.7765 20.6799 20.0105 20.6849 20.2817 20.6849C20.5508 20.6849 20.8743 20.6849 21.2519 20.6849C22.8549 20.6849 24.0883 20.8105 24.9521 21.0616C25.8159 21.3147 26.4637 21.7466 26.8956 22.3572C27.2371 22.8253 27.4259 23.4601 27.4621 24.2616C27.4982 25.0631 27.3636 25.8957 27.0583 26.7595C26.6967 27.8563 26.2146 28.8687 25.612 29.7968C25.0093 30.7228 24.1948 31.4289 23.1683 31.9151C22.5395 32.2204 21.7119 32.4323 20.6854 32.5508C19.6589 32.6673 18.3361 32.7256 16.7171 32.7256H9.3197L10.4798 28.0009Z" fill="white"/>
<path d="M39.2015 8.427C40.7654 8.427 42.0339 9.69555 42.0339 11.2594C42.0339 12.8232 40.7654 14.0918 39.2015 14.0918C37.6377 14.0918 36.3691 12.8232 36.3691 11.2594C36.3691 9.69555 37.6377 8.427 39.2015 8.427Z" fill="url(#paint1_linear_209_90677)"/>
<path d="M46.3126 10.5967C47.2437 10.5967 48 11.353 48 12.2841C48 13.2151 47.2437 13.9714 46.3126 13.9714C45.3816 13.9714 44.6252 13.2151 44.6252 12.2841C44.6252 11.353 45.3816 10.5967 46.3126 10.5967Z" fill="url(#paint2_linear_209_90677)"/>
<path d="M43.5104 4.41968C44.1431 4.41968 44.6554 4.93192 44.6554 5.56469C44.6554 6.19746 44.1431 6.7097 43.5104 6.7097C42.8776 6.7097 42.3654 6.19746 42.3654 5.56469C42.3654 4.93192 42.8776 4.41968 43.5104 4.41968Z" fill="url(#paint3_linear_209_90677)"/>
<path d="M65.8545 16.2546C64.501 16.2976 63.3551 16.7452 62.417 17.5974C61.4717 18.4353 60.999 19.4701 60.999 20.7019C60.999 21.9194 61.4717 22.9649 62.417 23.8386C63.3623 24.698 64.5081 25.1313 65.8545 25.1384H75.3398C75.7266 25.1384 76.0596 25.2673 76.3389 25.5251C76.6182 25.7758 76.7578 26.0837 76.7578 26.449C76.7578 26.7999 76.6217 27.1042 76.3496 27.3621C76.0775 27.5912 75.7409 27.7166 75.3398 27.738H66.1445C65.7578 27.738 65.4248 27.6091 65.1455 27.3513C64.8662 27.0935 64.7266 26.7856 64.7266 26.4275V26.406H60.9668C60.9668 27.6736 61.4538 28.7514 62.4277 29.6394C63.416 30.5274 64.5977 30.9714 65.9727 30.9714H75.7158C77.1123 30.9714 78.2904 30.5274 79.25 29.6394C80.2383 28.7514 80.7288 27.6736 80.7217 26.406C80.7432 25.1384 80.2562 24.0606 79.2607 23.1726C78.2939 22.2703 77.1123 21.8227 75.7158 21.8298C74.7347 21.8083 73.2129 21.8083 71.1504 21.8298C69.0879 21.837 67.5625 21.8406 66.5742 21.8406C66.2305 21.8406 65.9404 21.7296 65.7041 21.5076C65.4678 21.2856 65.346 21.017 65.3389 20.7019C65.3389 20.3868 65.457 20.1218 65.6934 19.907C65.9368 19.6635 66.2305 19.5525 66.5742 19.574H74.9424C75.3076 19.5525 75.6048 19.6599 75.834 19.8962C76.0775 20.1111 76.1992 20.3796 76.1992 20.7019C76.2135 20.7019 76.21 20.7234 76.1885 20.7664H80.0986V20.7019C80.0986 19.4701 79.626 18.421 78.6807 17.5544C77.7425 16.6879 76.5967 16.2546 75.2432 16.2546H65.8545ZM86.8984 18.1238C85.7526 18.1238 84.7607 18.4962 83.9229 19.241C83.1208 19.9858 82.709 20.8881 82.6875 21.948V27.158C82.6875 28.2107 83.0957 29.1095 83.9121 29.8542C84.7428 30.599 85.7383 30.9714 86.8984 30.9714H96.3945C97.5762 30.9714 98.568 30.6026 99.3701 29.865C100.208 29.113 100.62 28.2107 100.605 27.158V26.1912H96.8135V26.5564C96.8206 26.9073 96.6846 27.2117 96.4053 27.4695C96.1403 27.6986 95.8037 27.824 95.3955 27.8455H87.8975C87.5107 27.824 87.1777 27.6986 86.8984 27.4695C86.6191 27.2117 86.4795 26.9073 86.4795 26.5564V22.5388C86.4795 22.1736 86.6156 21.8692 86.8877 21.6257C87.1742 21.3679 87.5107 21.2426 87.8975 21.2498H95.3955C95.7894 21.2426 96.1224 21.3679 96.3945 21.6257C96.6738 21.8692 96.8135 22.1736 96.8135 22.5388V22.9148H100.605V21.948C100.627 20.8881 100.219 19.9858 99.3809 19.241C98.5645 18.4962 97.569 18.1238 96.3945 18.1238H86.8984ZM102.582 18.1238V30.9714H106.374V26.4382H111.799L115.569 30.9714H120.027L115.913 26.3416C116.98 26.1482 117.868 25.6791 118.577 24.9343C119.286 24.1609 119.641 23.2764 119.641 22.281C119.641 21.1137 119.193 20.1326 118.298 19.3376C117.417 18.5284 116.339 18.1238 115.064 18.1238H102.582ZM106.374 21.2498H114.731C115.097 21.2426 115.376 21.3357 115.569 21.5291C115.777 21.7224 115.881 21.9766 115.881 22.2917C115.881 22.6069 115.777 22.8611 115.569 23.0544C115.376 23.2478 115.097 23.3445 114.731 23.3445C113.915 23.3445 111.129 23.3445 106.374 23.3445V21.2498ZM121.961 18.1238V30.9714H125.742V18.1238H121.961ZM127.676 18.1238V30.9714H131.457V27.0613H140.201C141.562 27.0613 142.718 26.628 143.671 25.7615C144.638 24.8806 145.118 23.8279 145.11 22.6033C145.118 21.3643 144.638 20.308 143.671 19.4343C142.711 18.5606 141.555 18.1238 140.201 18.1238H127.676ZM131.457 21.2498H139.879C140.323 21.2426 140.685 21.3679 140.964 21.6257C141.243 21.8692 141.383 22.1951 141.383 22.6033C141.383 22.9972 141.243 23.323 140.964 23.5808C140.685 23.81 140.323 23.9353 139.879 23.9568H131.457V21.2498ZM147.055 18.1238V21.2498H153.543V30.9714H157.324V21.2498H163.812V18.1238H147.055ZM165.746 18.1238V30.9714H169.527V25.9333H179.26V30.9714H183.041V18.1238H179.26V22.8074H169.527V18.1238H165.746ZM189.175 18.1238C188.036 18.1238 187.048 18.4962 186.21 19.241C185.408 19.9858 184.996 20.8881 184.975 21.948V27.158C184.975 28.2107 185.383 29.1095 186.199 29.8542C187.037 30.599 188.029 30.9714 189.175 30.9714H198.961C200.143 30.9714 201.134 30.6026 201.937 29.865C202.774 29.113 203.186 28.2107 203.172 27.158V21.948C203.193 20.8881 202.785 19.9858 201.947 19.241C201.131 18.4962 200.135 18.1238 198.961 18.1238H189.175ZM190.185 21.2498H197.962C198.356 21.2426 198.689 21.3679 198.961 21.6257C199.24 21.8692 199.38 22.1736 199.38 22.5388V26.5564C199.387 26.9073 199.251 27.2117 198.972 27.4695C198.707 27.6986 198.37 27.824 197.962 27.8455H190.185C189.798 27.824 189.465 27.6986 189.186 27.4695C188.906 27.2117 188.767 26.9073 188.767 26.5564V22.5388C188.767 22.1736 188.903 21.8692 189.175 21.6257C189.461 21.3679 189.798 21.2426 190.185 21.2498ZM205.148 18.1238V30.9714H208.94V23.4304L213.731 29.8435H216.879L221.681 23.4304V30.9714H225.473V18.1238H221.627L215.311 26.7498L208.983 18.1238H205.148ZM227.406 18.1238V30.9714H243.24V27.8455H231.209V26.03H241.64V22.9578H231.209V21.2498H243.24V18.1238H227.406Z" fill="white"/>
<defs>
<linearGradient id="paint0_linear_209_90677" x1="47.1925" y1="15.1314" x2="38.0776" y2="35.8441" gradientUnits="userSpaceOnUse">
<stop stop-color="#FF9C49"/>
<stop offset="1" stop-color="#FF0D2B"/>
</linearGradient>
<linearGradient id="paint1_linear_209_90677" x1="43.6369" y1="11.0093" x2="34.281" y2="22.143" gradientUnits="userSpaceOnUse">
<stop stop-color="#FF9C49"/>
<stop offset="1" stop-color="#FF0D2B"/>
</linearGradient>
<linearGradient id="paint2_linear_209_90677" x1="48.9733" y1="12.1515" x2="43.3989" y2="18.7835" gradientUnits="userSpaceOnUse">
<stop stop-color="#FF9C49"/>
<stop offset="1" stop-color="#FF0D2B"/>
</linearGradient>
<linearGradient id="paint3_linear_209_90677" x1="45.3303" y1="5.48634" x2="41.5488" y2="9.98804" gradientUnits="userSpaceOnUse">
<stop stop-color="#FF9C49"/>
<stop offset="1" stop-color="#FF0D2B"/>
</linearGradient>
</defs>
</svg>
