<svg width="25" height="24" viewBox="0 0 25 24" fill="none" xmlns="http://www.w3.org/2000/svg">
<path fill-rule="evenodd" clip-rule="evenodd" d="M18.3385 2H6.66146C6.13433 1.99998 5.67954 1.99997 5.30497 2.03057C4.90963 2.06287 4.51641 2.13419 4.13803 2.32698C3.57354 2.6146 3.1146 3.07354 2.82698 3.63803C2.63419 4.01641 2.56287 4.40963 2.53057 4.80497C2.49997 5.17954 2.49998 5.63429 2.5 6.16142V17.8385C2.49998 18.3657 2.49997 18.8205 2.53057 19.195C2.56287 19.5904 2.63419 19.9836 2.82698 20.362C3.1146 20.9265 3.57354 21.3854 4.13803 21.673C4.51641 21.8658 4.90963 21.9371 5.30497 21.9694C5.67954 22 6.1343 22 6.66144 22H18.3386C18.8657 22 19.3205 22 19.695 21.9694C20.0904 21.9371 20.4836 21.8658 20.862 21.673C21.4265 21.3854 21.8854 20.9265 22.173 20.362C22.3658 19.9836 22.4371 19.5904 22.4694 19.195C22.5 18.8205 22.5 18.3657 22.5 17.8386V6.16144C22.5 5.6343 22.5 5.17954 22.4694 4.80497C22.4371 4.40963 22.3658 4.01641 22.173 3.63803C21.8854 3.07354 21.4265 2.6146 20.862 2.32698C20.4836 2.13419 20.0904 2.06287 19.695 2.03057C19.3205 1.99997 18.8657 1.99998 18.3385 2ZM13.5 8C13.5 7.44772 13.0523 7 12.5 7C11.9477 7 11.5 7.44772 11.5 8V12C11.5 12.5523 11.9477 13 12.5 13C13.0523 13 13.5 12.5523 13.5 12V8ZM12.5 15C11.9477 15 11.5 15.4477 11.5 16C11.5 16.5523 11.9477 17 12.5 17H12.51C13.0623 17 13.51 16.5523 13.51 16C13.51 15.4477 13.0623 15 12.51 15H12.5Z" fill="#F04438"/>
</svg>
