<svg width="21" height="20" viewBox="0 0 21 20" fill="none" xmlns="http://www.w3.org/2000/svg">
<path fill-rule="evenodd" clip-rule="evenodd" d="M15.3658 1.66663L5.63487 1.66663C5.1956 1.66661 4.81661 1.6666 4.50447 1.6921C4.17502 1.71902 3.84733 1.77845 3.53202 1.93911C3.06161 2.1788 2.67916 2.56125 2.43948 3.03165C2.27882 3.34697 2.21939 3.67465 2.19247 4.0041C2.16697 4.31624 2.16698 4.6952 2.16699 5.13448L2.16699 14.8654C2.16698 15.3047 2.16697 15.6837 2.19247 15.9958C2.21939 16.3253 2.27882 16.653 2.43948 16.9683C2.67916 17.4387 3.06161 17.8211 3.53202 18.0608C3.84733 18.2215 4.17502 18.2809 4.50447 18.3078C4.81661 18.3333 5.19557 18.3333 5.63486 18.3333H15.3658C15.8051 18.3333 16.184 18.3333 16.4962 18.3078C16.8256 18.2809 17.1533 18.2215 17.4686 18.0608C17.939 17.8211 18.3215 17.4387 18.5612 16.9683C18.7218 16.653 18.7813 16.3253 18.8082 15.9958C18.8337 15.6837 18.8337 15.3047 18.8337 14.8654V5.13449C18.8337 4.69521 18.8337 4.31624 18.8082 4.0041C18.7813 3.67465 18.7218 3.34697 18.5612 3.03165C18.3215 2.56125 17.939 2.1788 17.4686 1.93911C17.1533 1.77845 16.8256 1.71902 16.4962 1.6921C16.184 1.6666 15.8051 1.66661 15.3658 1.66663ZM9.91107 6.07737C10.2365 5.75193 10.7641 5.75193 11.0896 6.07737L14.4229 9.4107C14.7484 9.73614 14.7484 10.2638 14.4229 10.5892L11.0896 13.9225C10.7641 14.248 10.2365 14.248 9.91107 13.9225C9.58563 13.5971 9.58563 13.0695 9.91107 12.744L11.8218 10.8333L7.16699 10.8333C6.70676 10.8333 6.33366 10.4602 6.33366 9.99996C6.33366 9.53972 6.70676 9.16663 7.16699 9.16663H11.8218L9.91107 7.25588C9.58563 6.93045 9.58563 6.40281 9.91107 6.07737Z" fill="white"/>
</svg>
