<svg width="25" height="24" viewBox="0 0 25 24" fill="none" xmlns="http://www.w3.org/2000/svg">
<path d="M22.626 12.6649C22.8332 12.2459 22.8332 11.7543 22.626 11.3353C22.4436 10.9663 22.1235 10.7729 21.9576 10.6795C21.7791 10.5791 21.5503 10.4761 21.3221 10.3735L4.53833 2.82085C4.3049 2.71576 4.07218 2.61099 3.87587 2.54299C3.69564 2.48056 3.33277 2.36649 2.931 2.47828C2.47699 2.60461 2.10873 2.93697 1.93666 3.3757C1.7844 3.76393 1.86078 4.13656 1.90447 4.32223C1.95205 4.52448 2.0325 4.76673 2.11319 5.0097L3.73767 9.90402C3.86847 10.2981 3.93387 10.4951 4.05548 10.6408C4.16287 10.7695 4.30088 10.8691 4.45681 10.9305C4.63339 11 4.841 11 5.25621 11H12.4999C13.0522 11 13.4999 11.4477 13.4999 12C13.4999 12.5523 13.0522 13 12.4999 13H5.27512C4.86096 13 4.65387 13 4.47761 13.0692C4.32195 13.1304 4.18412 13.2296 4.07672 13.3578C3.9551 13.503 3.88936 13.6993 3.75788 14.0921L2.12033 18.9836C2.03876 19.2272 1.95752 19.4697 1.90932 19.6722C1.86513 19.8578 1.78747 20.2311 1.93932 20.6203C2.1108 21.0599 2.47909 21.3931 2.93353 21.52C3.33596 21.6323 3.69965 21.5178 3.87994 21.4553C4.07664 21.3872 4.30993 21.2822 4.54413 21.1767L21.3221 13.6267C21.5502 13.524 21.7791 13.4211 21.9577 13.3206C22.1235 13.2273 22.4436 13.0338 22.626 12.6649Z" fill="white"/>
</svg>
