<svg width="17" height="16" viewBox="0 0 17 16" fill="none" xmlns="http://www.w3.org/2000/svg">
<path d="M7.16661 7.99996C7.16661 7.26358 7.76356 6.66663 8.49994 6.66663C9.23632 6.66663 9.83327 7.26358 9.83327 7.99996C9.83327 8.73634 9.23632 9.33329 8.49994 9.33329C7.76356 9.33329 7.16661 8.73634 7.16661 7.99996Z" fill="white"/>
<path fill-rule="evenodd" clip-rule="evenodd" d="M8.49994 2.66663C6.59216 2.66663 5.03684 3.50977 3.88444 4.47158C2.73361 5.43208 1.94459 6.54282 1.54942 7.16852L1.53337 7.19385C1.45495 7.31728 1.35314 7.47753 1.30167 7.70207C1.26012 7.88337 1.26012 8.11655 1.30167 8.29785C1.35314 8.52239 1.45495 8.68264 1.53336 8.80607L1.54942 8.8314C1.94459 9.4571 2.73361 10.5678 3.88444 11.5283C5.03684 12.4901 6.59216 13.3333 8.49994 13.3333C10.4077 13.3333 11.963 12.4901 13.1154 11.5283C14.2663 10.5678 15.0553 9.4571 15.4505 8.83139L15.4665 8.80608C15.5449 8.68265 15.6467 8.5224 15.6982 8.29785C15.7398 8.11655 15.7398 7.88337 15.6982 7.70207C15.6467 7.47752 15.5449 7.31727 15.4665 7.19384L15.4505 7.16852C15.0553 6.54282 14.2663 5.43208 13.1154 4.47158C11.963 3.50977 10.4077 2.66663 8.49994 2.66663ZM8.49994 5.33329C7.02718 5.33329 5.83327 6.5272 5.83327 7.99996C5.83327 9.47272 7.02718 10.6666 8.49994 10.6666C9.9727 10.6666 11.1666 9.47272 11.1666 7.99996C11.1666 6.5272 9.9727 5.33329 8.49994 5.33329Z" fill="white"/>
</svg>
