<svg width="49" height="48" viewBox="0 0 49 48" fill="none" xmlns="http://www.w3.org/2000/svg">
<g clip-path="url(#clip0_469_73726)">
<rect opacity="0.15" x="0.833496" width="48" height="48" fill="#9E77ED"/>
<path fill-rule="evenodd" clip-rule="evenodd" d="M24.8335 17C20.9675 17 17.8335 20.134 17.8335 24C17.8335 26.7924 19.4685 29.2029 21.8335 30.3264V32.0001C21.8335 33.657 23.1766 35.0001 24.8335 35.0001C26.4904 35.0001 27.8335 33.657 27.8335 32.0001V30.3264C30.1984 29.2029 31.8335 26.7924 31.8335 24C31.8335 20.134 28.6995 17 24.8335 17Z" fill="#9E77ED"/>
<path fill-rule="evenodd" clip-rule="evenodd" d="M24.8335 13C25.3858 13 25.8335 13.4477 25.8335 14V15C25.8335 15.5523 25.3858 16 24.8335 16C24.2812 16 23.8335 15.5523 23.8335 15V14C23.8335 13.4477 24.2812 13 24.8335 13Z" fill="#9E77ED"/>
<path fill-rule="evenodd" clip-rule="evenodd" d="M13.8335 24C13.8335 23.4477 14.2812 23 14.8335 23H15.8335C16.3858 23 16.8335 23.4477 16.8335 24C16.8335 24.5523 16.3858 25 15.8335 25H14.8335C14.2812 25 13.8335 24.5523 13.8335 24Z" fill="#9E77ED"/>
<path fill-rule="evenodd" clip-rule="evenodd" d="M17.0263 16.1928C17.4168 15.8023 18.05 15.8023 18.4405 16.1928L19.0406 16.7929C19.4311 17.1834 19.4311 17.8166 19.0406 18.2071C18.6501 18.5976 18.0169 18.5976 17.6264 18.2071L17.0263 17.607C16.6358 17.2165 16.6358 16.5833 17.0263 16.1928Z" fill="#9E77ED"/>
<path fill-rule="evenodd" clip-rule="evenodd" d="M32.6409 16.1929C33.0314 16.5835 33.0313 17.2166 32.6408 17.6071L32.0405 18.2072C31.6499 18.5977 31.0168 18.5976 30.6263 18.207C30.2358 17.8164 30.2359 17.1833 30.6265 16.7928L31.2267 16.1927C31.6173 15.8022 32.2505 15.8023 32.6409 16.1929Z" fill="#9E77ED"/>
<path fill-rule="evenodd" clip-rule="evenodd" d="M32.8335 24C32.8335 23.4477 33.2812 23 33.8335 23H34.8335C35.3858 23 35.8335 23.4477 35.8335 24C35.8335 24.5523 35.3858 25 34.8335 25H33.8335C33.2812 25 32.8335 24.5523 32.8335 24Z" fill="#9E77ED"/>
</g>
<defs>
<clipPath id="clip0_469_73726">
<rect x="0.833496" width="48" height="48" rx="24" fill="white"/>
</clipPath>
</defs>
</svg>
