<svg width="21" height="20" viewBox="0 0 21 20" fill="none" xmlns="http://www.w3.org/2000/svg">
<path fill-rule="evenodd" clip-rule="evenodd" d="M11.8275 3.33337L9.17236 3.33337C8.10834 3.33337 7.26059 3.33336 6.57343 3.38779C5.86859 3.44362 5.26546 3.56039 4.70544 3.83081C3.79842 4.26877 3.04483 4.97046 2.54335 5.84397C2.23372 6.3833 2.07428 6.97658 1.96837 7.67565C1.86512 8.35718 1.80473 9.20277 1.72893 10.2641L1.5214 13.1694C1.38642 15.0592 2.88316 16.6667 4.77779 16.6667C5.74669 16.6667 6.66552 16.2363 7.28579 15.492L7.59843 15.1169C7.90293 14.7515 7.99445 14.6461 8.09028 14.5645C8.31782 14.3707 8.59328 14.2417 8.8878 14.1909C9.01184 14.1695 9.1514 14.1667 9.62705 14.1667H11.3728C11.8484 14.1667 11.988 14.1695 12.112 14.1909C12.4065 14.2417 12.682 14.3707 12.9095 14.5645C13.0054 14.6461 13.0969 14.7515 13.4014 15.1169L13.714 15.492C14.3343 16.2363 15.2531 16.6667 16.222 16.6667C18.1167 16.6667 19.6134 15.0592 19.4784 13.1694L19.2709 10.2641C19.1951 9.20275 19.1347 8.35717 19.0315 7.67565C18.9255 6.97658 18.7661 6.3833 18.4565 5.84397C17.955 4.97046 17.2014 4.26877 16.2944 3.83081C15.7344 3.56039 15.1312 3.44362 14.4264 3.38779C13.7392 3.33336 12.8915 3.33337 11.8275 3.33337ZM7.99996 7.50004C7.99996 7.0398 7.62686 6.66671 7.16663 6.66671C6.70639 6.66671 6.33329 7.0398 6.33329 7.50004V8.33337H5.49996C5.03972 8.33337 4.66663 8.70647 4.66663 9.16671C4.66663 9.62694 5.03972 10 5.49996 10H6.33329V10.8334C6.33329 11.2936 6.70639 11.6667 7.16663 11.6667C7.62686 11.6667 7.99996 11.2936 7.99996 10.8334V10H8.83329C9.29353 10 9.66663 9.62694 9.66663 9.16671C9.66663 8.70647 9.29353 8.33337 8.83329 8.33337H7.99996V7.50004ZM12.1666 10C12.1666 9.5398 12.5397 9.16671 13 9.16671H13.0083C13.4685 9.16671 13.8416 9.5398 13.8416 10C13.8416 10.4603 13.4685 10.8334 13.0083 10.8334H13C12.5397 10.8334 12.1666 10.4603 12.1666 10ZM14.6666 8.33337C14.6666 7.87314 15.0397 7.50004 15.5 7.50004H15.5083C15.9685 7.50004 16.3416 7.87314 16.3416 8.33337C16.3416 8.79361 15.9685 9.16671 15.5083 9.16671H15.5C15.0397 9.16671 14.6666 8.79361 14.6666 8.33337Z" fill="white"/>
</svg>
