<svg width="21" height="20" viewBox="0 0 21 20" fill="none" xmlns="http://www.w3.org/2000/svg">
<path d="M4.66667 1.66671C4.66667 1.20647 4.29357 0.833374 3.83333 0.833374C3.3731 0.833374 3 1.20647 3 1.66671L3 12.5002C3 12.5002 3 12.5002 3 12.5002L3 18.3334C3 18.7936 3.3731 19.1667 3.83333 19.1667C4.29357 19.1667 4.66667 18.7936 4.66667 18.3334L4.66667 12.9484C4.72451 12.9197 4.79269 12.8888 4.87199 12.8571C5.28376 12.6924 6.0106 12.5 7.16667 12.5C8.23391 12.5 9.13376 12.8511 10.1905 13.2738L10.2369 13.2923C11.2528 13.6988 12.4221 14.1667 13.8333 14.1667C15.1773 14.1667 16.1171 13.9424 16.747 13.6904C17.0612 13.5648 17.2947 13.4336 17.4596 13.3236C17.542 13.2687 17.6068 13.2194 17.6557 13.1791C17.6901 13.1508 17.7235 13.1216 17.755 13.0902L17.7559 13.0893C17.9188 12.9264 18.0002 12.7128 18 12.4992V3.33337C18 3.12011 17.9186 2.90684 17.7559 2.74412C17.4366 2.42481 16.9226 2.4188 16.596 2.72609C16.5894 2.73154 16.5696 2.74724 16.5351 2.77021C16.4658 2.81647 16.3346 2.89366 16.128 2.97631C15.7162 3.14102 14.9894 3.33337 13.8333 3.33337C12.7661 3.33337 11.8662 2.98234 10.8095 2.55964L10.7631 2.54107C9.74725 2.13461 8.57787 1.66671 7.16667 1.66671C6.09021 1.66671 5.273 1.81062 4.66667 1.99738V1.66671Z" fill="white"/>
</svg>
