<svg width="21" height="20" viewBox="0 0 21 20" fill="none" xmlns="http://www.w3.org/2000/svg">
<path fill-rule="evenodd" clip-rule="evenodd" d="M11.0095 3.33837C10.8727 3.33703 10.7489 3.33606 10.6411 3.33534C10.622 3.33404 10.6027 3.33337 10.5833 3.33337L9.75 3.33337C9.72959 3.33337 9.70936 3.33411 9.68932 3.33555C9.58194 3.33633 9.45897 3.3374 9.32308 3.33885C8.8107 3.34431 8.11296 3.35523 7.37321 3.37713C6.6348 3.39899 5.84786 3.43197 5.15909 3.48201C4.49355 3.53037 3.84915 3.59888 3.43732 3.70859L3.4258 3.71175C2.92853 3.8519 2.47683 4.12039 2.11648 4.49046C1.75611 4.86056 1.49988 5.31914 1.37402 5.82004C1.36948 5.83811 1.36555 5.85633 1.36223 5.87467C1.11493 7.24072 0.993823 8.62649 1.00042 10.0146C0.991895 11.4131 1.11301 12.8095 1.36223 14.1858C1.36715 14.213 1.37341 14.2399 1.381 14.2664C1.51974 14.7517 1.78169 15.1928 2.1412 15.5473C2.50068 15.9017 2.94556 16.1575 3.4327 16.2903L3.43732 16.2915C3.84915 16.4012 4.49355 16.4697 5.15909 16.5181C5.84786 16.5681 6.6348 16.6011 7.37321 16.623C8.11296 16.6448 8.8107 16.6558 9.32308 16.6612C9.45897 16.6627 9.58194 16.6637 9.68933 16.6645C9.70936 16.666 9.7296 16.6667 9.75 16.6667H10.5833C10.6037 16.6667 10.624 16.666 10.644 16.6645C10.7514 16.6637 10.8744 16.6627 11.0103 16.6612C11.5226 16.6558 12.2204 16.6448 12.9601 16.623C13.6985 16.6011 14.4855 16.5681 15.1742 16.5181C15.8398 16.4697 16.4842 16.4012 16.896 16.2915L16.9075 16.2883C17.4048 16.1482 17.8565 15.8797 18.2169 15.5096C18.5772 15.1395 18.8335 14.6809 18.9593 14.18C18.9639 14.162 18.9678 14.1437 18.9711 14.1254C19.2165 12.7694 19.3376 11.3941 19.3329 10.0163C19.3415 8.61752 19.2204 7.22098 18.9711 5.84445C18.9678 5.82612 18.9639 5.80792 18.9593 5.78986C18.8335 5.28896 18.5772 4.83037 18.2169 4.46028C17.8565 4.0902 17.4048 3.82171 16.9075 3.68157C16.8979 3.67885 16.8882 3.6763 16.8784 3.67393C16.4732 3.57536 15.8348 3.51309 15.169 3.46891C14.4817 3.42332 13.6959 3.39324 12.958 3.3733C12.2188 3.35332 11.5216 3.34335 11.0095 3.33837ZM8.37478 7.18011C8.29167 7.29113 8.29167 7.49 8.29167 7.88774V12.1122C8.29167 12.5099 8.29167 12.7088 8.37478 12.8198C8.44722 12.9166 8.55809 12.9771 8.67865 12.9857C8.81699 12.9956 8.98427 12.8881 9.31884 12.673L12.6045 10.5607C12.8948 10.3741 13.04 10.2808 13.0901 10.1621C13.1339 10.0585 13.1339 9.94147 13.0901 9.83779C13.04 9.71913 12.8948 9.62581 12.6045 9.43918L9.31884 7.32695C8.98427 7.11187 8.81699 7.00433 8.67865 7.01421C8.55809 7.02283 8.44722 7.08336 8.37478 7.18011Z" fill="white"/>
</svg>
