<svg width="1631" height="1348" viewBox="0 0 1631 1348" fill="none" xmlns="http://www.w3.org/2000/svg">
<path d="M719.4 810.7C718.667 809.967 717.934 809.233 717.2 808.5C689.467 780.833 661.767 753.133 634.1 725.4C534.3 621.2 513.6 464 583 337.5L590.3 324.8L777.4 0.800049H1068.8C992.4 133 916 265.3 839.7 397.5C807.8 466.8 820 549.6 872.2 606.7C876.067 610.967 880.167 615.067 884.5 619C908.3 642.8 932.1 666.6 955.9 690.4C1056.7 795.2 1077.6 953.7 1007.3 1081C956.034 1169.73 904.8 1258.47 853.6 1347.2H562.2C624.1 1240.1 689.5 1132.1 748.9 1024C787.1 954.4 775.3 867.6 719.4 810.7V810.7Z" fill="white"/>
<path d="M0.100098 1347.2L417.2 624.8L601.9 809.5L291.4 1347.2H0.100098Z" fill="white"/>
<path d="M1339.6 0.800049H1482.2H1630.9L1482.2 258.4L1174 792.2L989.3 607.5L1339.6 0.800049Z" fill="white"/>
</svg>
