<svg width="56" height="56" viewBox="0 0 56 56" fill="none" xmlns="http://www.w3.org/2000/svg">
<rect x="4" y="4" width="48" height="48" rx="24" fill="#FEF0C7"/>
<path d="M30.0003 37H26.0003M18.2941 21.8199C18.2798 20.3685 19.0623 19.0132 20.3264 18.3M37.7025 21.8199C37.7169 20.3686 36.9344 19.0133 35.6703 18.3M34.0003 24C34.0003 22.4087 33.3682 20.8826 32.2429 19.7574C31.1177 18.6321 29.5916 18 28.0003 18C26.409 18 24.8829 18.6321 23.7577 19.7574C22.6324 20.8826 22.0003 22.4087 22.0003 24C22.0003 27.0902 21.2208 29.206 20.35 30.6054C19.6154 31.7859 19.2482 32.3761 19.2616 32.5408C19.2765 32.7231 19.3152 32.7926 19.4621 32.9016C19.5948 33 20.1929 33 21.3892 33H34.6114C35.8077 33 36.4058 33 36.5385 32.9016C36.6854 32.7926 36.7241 32.7231 36.739 32.5408C36.7524 32.3761 36.3852 31.7859 35.6506 30.6054C34.7798 29.206 34.0003 27.0902 34.0003 24Z" stroke="#DC6803" stroke-width="2" stroke-linecap="round" stroke-linejoin="round"/>
<rect x="4" y="4" width="48" height="48" rx="24" stroke="#FFFAEB" stroke-width="8"/>
</svg>
