<svg width="20" height="21" viewBox="0 0 20 21" fill="none" xmlns="http://www.w3.org/2000/svg">
<path fill-rule="evenodd" clip-rule="evenodd" d="M13.6147 5.72897C13.9379 5.47764 14.4053 5.50049 14.7023 5.79751L14.7709 5.87514C15.0222 6.19837 14.9994 6.66574 14.7023 6.96276L11.1658 10.4999L14.7023 14.0371L14.7709 14.1147C15.0222 14.4379 14.9994 14.9053 14.7023 15.2023C14.3806 15.5241 13.8589 15.5241 13.5371 15.2023L9.4173 11.0825L9.34876 11.0049C9.09743 10.6817 9.12028 10.2143 9.4173 9.91729L13.5371 5.79751L13.6147 5.72897ZM8.67095 5.72898C8.99418 5.47766 9.46156 5.5005 9.75858 5.79753L9.82713 5.87515C10.0785 6.19838 10.0556 6.66575 9.75858 6.96278L6.22207 10.4999L9.75858 14.0371L9.82713 14.1147C10.0785 14.4379 10.0556 14.9053 9.75858 15.2023C9.43681 15.5241 8.91511 15.5241 8.59333 15.2023L4.47355 11.0826L4.40501 11.0049C4.15368 10.6817 4.17653 10.2143 4.47355 9.91731L8.59333 5.79753L8.67095 5.72898Z" fill="#171717"/>
</svg>
