<svg width="20" height="21" viewBox="0 0 20 21" fill="none" xmlns="http://www.w3.org/2000/svg">
<path fill-rule="evenodd" clip-rule="evenodd" d="M6.38535 5.72897C6.06212 5.47764 5.59475 5.50049 5.29773 5.79751L5.22918 5.87514C4.97786 6.19837 5.0007 6.66574 5.29773 6.96276L8.83423 10.4999L5.29773 14.0371L5.22918 14.1147C4.97786 14.4379 5.0007 14.9053 5.29773 15.2023C5.6195 15.5241 6.1412 15.5241 6.46298 15.2023L10.5828 11.0825L10.6513 11.0049C10.9026 10.6817 10.8798 10.2143 10.5828 9.91729L6.46298 5.79751L6.38535 5.72897ZM11.3291 5.72898C11.0059 5.47766 10.5385 5.5005 10.2415 5.79753L10.173 5.87515C9.92162 6.19838 9.94447 6.66575 10.2415 6.96278L13.778 10.4999L10.2415 14.0371L10.173 14.1147C9.92162 14.4379 9.94447 14.9053 10.2415 15.2023C10.5633 15.5241 11.085 15.5241 11.4067 15.2023L15.5265 11.0826L15.5951 11.0049C15.8464 10.6817 15.8235 10.2143 15.5265 9.91731L11.4067 5.79753L11.3291 5.72898Z" fill="#171717"/>
</svg>
