<svg width="20" height="21" viewBox="0 0 20 21" fill="none" xmlns="http://www.w3.org/2000/svg">
<path fill-rule="evenodd" clip-rule="evenodd" d="M0 10.6318C0 14.774 3.35786 18.1318 7.5 18.1318H13.75C17.2018 18.1318 20 15.3336 20 11.8818C20 8.43006 17.2018 5.63184 13.75 5.63184C13.5368 5.63184 13.3261 5.64251 13.1183 5.66336C11.7442 4.1107 9.73642 3.13184 7.5 3.13184C3.35786 3.13184 0 6.4897 0 10.6318ZM10 7.2985C10.4602 7.2985 10.8333 7.6716 10.8333 8.13184L10.8333 12.7867L12.7441 10.8759C13.0695 10.5505 13.5972 10.5505 13.9226 10.8759C14.248 11.2014 14.248 11.729 13.9226 12.0544L10.5893 15.3878C10.2638 15.7132 9.73618 15.7132 9.41074 15.3878L6.07741 12.0544C5.75197 11.729 5.75197 11.2014 6.07741 10.8759C6.40285 10.5505 6.93049 10.5505 7.25592 10.8759L9.16667 12.7867L9.16667 8.13184C9.16667 7.6716 9.53976 7.2985 10 7.2985Z" fill="white"/>
</svg>
