<svg width="20" height="20" viewBox="0 0 20 20" fill="none" xmlns="http://www.w3.org/2000/svg">
<path fill-rule="evenodd" clip-rule="evenodd" d="M14.16 8.78793C13.4561 6.95541 11.6675 5.66329 9.44433 6.07579C6.98661 6.5318 5.37539 8.76559 5.71059 11.1964C5.83053 12.0661 6.20802 13.4591 6.59527 14.7623C6.98848 16.0855 7.41228 17.3828 7.64791 18.0913C7.6497 18.0967 7.65153 18.1022 7.65338 18.1078C7.68035 18.189 7.7139 18.29 7.75115 18.378C7.79573 18.4833 7.86646 18.623 7.99203 18.756C8.15877 18.9326 8.37579 19.0579 8.61207 19.114C8.79003 19.1562 8.94643 19.1476 9.0599 19.1336C9.15471 19.1219 9.25895 19.1004 9.34276 19.0832C9.34853 19.082 9.35421 19.0808 9.35978 19.0797C10.0912 18.9295 11.4266 18.6479 12.7691 18.3268C14.0913 18.0106 15.4865 17.6409 16.2997 17.3099C18.5612 16.3894 19.7406 13.8806 18.8635 11.5055C18.0817 9.38844 16.0973 8.47999 14.16 8.78793Z" fill="white"/>
<path d="M12.1627 1.24403C10.113 0.299859 8.06743 1.06064 6.9153 2.64826C5.12179 1.85019 2.94337 2.20128 1.66303 4.06498C0.247607 6.1253 0.687827 8.84414 2.64366 10.3259C2.99332 10.5908 3.48269 10.9038 4.03605 11.2326C3.68704 7.98523 5.8806 5.0419 9.14027 4.4371C11.4776 4.00343 13.4435 4.92324 14.6919 6.43958C15.189 4.37825 14.2198 2.19156 12.1627 1.24403Z" fill="white"/>
</svg>
