<svg viewBox="0 0 25 24" fill="none" xmlns="http://www.w3.org/2000/svg">
                <path
                  fill-rule="evenodd"
                  clip-rule="evenodd"
                  d="M1.5 9.48C1.5 5.97111 4.15774 2 8.38889 2C10.2159 2 11.5661 2.7105 12.5 3.51082C13.4339 2.7105 14.7841 2 16.6111 2C20.8423 2 23.5 5.97111 23.5 9.48C23.5 11.3254 22.7854 13.0297 21.793 14.5091C20.7998 15.9897 19.4924 17.2999 18.2111 18.3798C16.9261 19.4629 15.6397 20.3372 14.6636 20.9411C14.1749 21.2435 13.7596 21.4807 13.4558 21.6447C13.3047 21.7263 13.1762 21.7924 13.0771 21.8404C13.0289 21.8637 12.9787 21.8871 12.9319 21.9068C12.9098 21.9161 12.8759 21.9299 12.8368 21.9431C12.8177 21.9496 12.7854 21.9601 12.7456 21.9699C12.7202 21.9762 12.6237 22 12.5 22C12.3763 22 12.2805 21.9763 12.2551 21.9701C12.2153 21.9602 12.1823 21.9496 12.1632 21.9431C12.1241 21.9299 12.0902 21.9161 12.0681 21.9068C12.0213 21.8871 11.9711 21.8637 11.9229 21.8404C11.8238 21.7924 11.6953 21.7263 11.5442 21.6447C11.2404 21.4807 10.8251 21.2435 10.3364 20.9411C9.36027 20.3372 8.07395 19.4629 6.78889 18.3798C5.50758 17.2999 4.20022 15.9897 3.20703 14.5091C2.21464 13.0297 1.5 11.3254 1.5 9.48Z"
                  stroke="white"
                  stroke-width="2"
                  stroke-linecap="round"
                  stroke-linejoin="round"
                />
              </svg>