<svg width="20" height="20" viewBox="0 0 20 20" fill="none" xmlns="http://www.w3.org/2000/svg">
<rect width="10" height="11.6667" transform="translate(5 3.33325)" fill="white"/>
<path fill-rule="evenodd" clip-rule="evenodd" d="M9.76162 0.907025C9.9197 0.884182 10.0803 0.884182 10.2383 0.907025C10.4205 0.933352 10.5901 0.997397 10.7247 1.04825L10.7607 1.06185L15.3378 2.77811C15.8526 2.97032 16.3047 3.13912 16.6529 3.44597C16.9575 3.71441 17.1921 4.05298 17.3365 4.43244C17.5016 4.8662 17.5009 5.34879 17.5001 5.89833L17.5 9.99989C17.5 12.3554 16.2189 14.3192 14.8341 15.7619C13.44 17.2142 11.845 18.24 11.0016 18.7321L10.9674 18.7521C10.8135 18.8425 10.6137 18.9598 10.3494 19.0165C10.1332 19.0628 9.86672 19.0628 9.65051 19.0165C9.38624 18.9598 9.18646 18.8425 9.03255 18.7521L8.99839 18.7321C8.15497 18.24 6.55994 17.2142 5.16586 15.7619C3.78105 14.3192 2.49998 12.3554 2.49998 9.99989L2.49986 5.89833C2.49907 5.3488 2.49837 4.8662 2.66343 4.43244C2.80782 4.05298 3.04245 3.71441 3.34705 3.44597C3.69523 3.13912 4.14735 2.97032 4.66218 2.77811L9.23921 1.06185L9.27528 1.04825C9.40989 0.997398 9.57942 0.933352 9.76162 0.907025ZM13.5059 8.08926C13.8313 7.76382 13.8313 7.23618 13.5059 6.91074C13.1804 6.58531 12.6528 6.58531 12.3274 6.91074L9.16663 10.0715L8.08921 8.99408C7.76378 8.66864 7.23614 8.66864 6.9107 8.99408C6.58527 9.31951 6.58527 9.84715 6.9107 10.1726L8.57737 11.8393C8.90281 12.1647 9.43044 12.1647 9.75588 11.8393L13.5059 8.08926Z" fill="#F04438"/>
</svg>
