<svg width="56" height="57" viewBox="0 0 56 57" fill="none" xmlns="http://www.w3.org/2000/svg">
<rect x="4" y="4.5" width="48" height="48" rx="24" fill="#D1FADF"/>
<path d="M38 26.5H18M27 35.5L34.8 35.5C35.9201 35.5 36.4802 35.5 36.908 35.282C37.2843 35.0903 37.5903 34.7843 37.782 34.408C38 33.9802 38 33.4201 38 32.3V24.7C38 23.5799 38 23.0198 37.782 22.592C37.5903 22.2157 37.2843 21.9097 36.908 21.718C36.4802 21.5 35.9201 21.5 34.8 21.5H33M27 35.5L29 37.5M27 35.5L29 33.5M23 35.5H21.2C20.0799 35.5 19.5198 35.5 19.092 35.282C18.7157 35.0903 18.4097 34.7843 18.218 34.408C18 33.9802 18 33.4201 18 32.3V24.7C18 23.5799 18 23.0198 18.218 22.592C18.4097 22.2157 18.7157 21.9097 19.092 21.718C19.5198 21.5 20.0799 21.5 21.2 21.5H29M29 21.5L27 23.5M29 21.5L27 19.5" stroke="#039855" stroke-width="2" stroke-linecap="round" stroke-linejoin="round"/>
<rect x="4" y="4.5" width="48" height="48" rx="24" stroke="#ECFDF3" stroke-width="8"/>
</svg>
