<svg width="56" height="57" viewBox="0 0 56 57" fill="none" xmlns="http://www.w3.org/2000/svg">
<rect x="4" y="4.5" width="48" height="48" rx="24" fill="#F4EBFF"/>
<path d="M21.8069 35.0304C21.8246 35.0005 21.8427 34.9709 21.8613 34.9413C23.2158 32.7881 23.9999 30.2418 23.9999 27.5C23.9999 25.2909 25.7908 23.5 27.9999 23.5C30.209 23.5 31.9999 25.2909 31.9999 27.5C31.9999 28.517 31.9307 29.5186 31.7966 30.5M29.6792 37.3436C30.2909 36.1226 30.7924 34.8369 31.1707 33.5M35.0097 34.632C35.6547 32.3657 36 29.9732 36 27.5C36 23.0817 32.4183 19.5 28 19.5C26.5429 19.5 25.1767 19.8896 24 20.5703M19 31.8641C19.6407 30.5454 20 29.0646 20 27.5C20 26.0429 20.3896 24.6767 21.0703 23.5M27.9999 27.5C27.9999 31.0172 26.9911 34.2988 25.2471 37.0712" stroke="#7F56D9" stroke-width="2" stroke-linecap="round" stroke-linejoin="round"/>
<rect x="4" y="4.5" width="48" height="48" rx="24" stroke="#F9F5FF" stroke-width="8"/>
</svg>
