<svg width="36" height="37" viewBox="0 0 36 37" fill="none" xmlns="http://www.w3.org/2000/svg">
<rect x="2" y="2.5" width="32" height="32" rx="16" fill="#D1FADF"/>
<path d="M20.8 24.5H14.6209C14.217 24.5 14.0151 24.5 13.9216 24.4201C13.8405 24.3508 13.7974 24.2469 13.8058 24.1405C13.8154 24.0179 13.9582 23.8751 14.2438 23.5895L19.9124 17.9209C20.1764 17.6569 20.3084 17.5249 20.4607 17.4754C20.5946 17.4319 20.7388 17.4319 20.8727 17.4754C21.0249 17.5249 21.1569 17.6569 21.4209 17.9209L24 20.5V21.3M20.8 24.5C21.9201 24.5 22.4802 24.5 22.908 24.282C23.2843 24.0903 23.5903 23.7843 23.782 23.408C24 22.9802 24 22.4201 24 21.3M20.8 24.5H15.2C14.0799 24.5 13.5198 24.5 13.092 24.282C12.7157 24.0903 12.4097 23.7843 12.218 23.408C12 22.9802 12 22.4201 12 21.3V15.7C12 14.5799 12 14.0198 12.218 13.592C12.4097 13.2157 12.7157 12.9097 13.092 12.718C13.5198 12.5 14.0799 12.5 15.2 12.5H20.8C21.9201 12.5 22.4802 12.5 22.908 12.718C23.2843 12.9097 23.5903 13.2157 23.782 13.592C24 14.0198 24 14.5799 24 15.7V21.3M17 16.1667C17 16.903 16.403 17.5 15.6667 17.5C14.9303 17.5 14.3333 16.903 14.3333 16.1667C14.3333 15.4303 14.9303 14.8333 15.6667 14.8333C16.403 14.8333 17 15.4303 17 16.1667Z" stroke="#039855" stroke-width="1.33333" stroke-linecap="round" stroke-linejoin="round"/>
<rect x="2" y="2.5" width="32" height="32" rx="16" stroke="#ECFDF3" stroke-width="4"/>
</svg>
