<svg width="56" height="57" viewBox="0 0 56 57" fill="none" xmlns="http://www.w3.org/2000/svg">
<rect x="4" y="4.5" width="48" height="48" rx="24" fill="#D1FADF"/>
<path d="M23 27.5V24.5C23 21.7386 25.2386 19.5 28 19.5C30.419 19.5 32.4367 21.2178 32.9 23.5M24.8 37.5H31.2C32.8802 37.5 33.7202 37.5 34.362 37.173C34.9265 36.8854 35.3854 36.4265 35.673 35.862C36 35.2202 36 34.3802 36 32.7V32.3C36 30.6198 36 29.7798 35.673 29.138C35.3854 28.5735 34.9265 28.1146 34.362 27.827C33.7202 27.5 32.8802 27.5 31.2 27.5H24.8C23.1198 27.5 22.2798 27.5 21.638 27.827C21.0735 28.1146 20.6146 28.5735 20.327 29.138C20 29.7798 20 30.6198 20 32.3V32.7C20 34.3802 20 35.2202 20.327 35.862C20.6146 36.4265 21.0735 36.8854 21.638 37.173C22.2798 37.5 23.1198 37.5 24.8 37.5Z" stroke="#039855" stroke-width="2" stroke-linecap="round" stroke-linejoin="round"/>
<rect x="4" y="4.5" width="48" height="48" rx="24" stroke="#ECFDF3" stroke-width="8"/>
</svg>
