<svg width="46" height="47" viewBox="0 0 46 47" fill="none" xmlns="http://www.w3.org/2000/svg">
<rect x="3" y="3.5" width="40" height="40" rx="20" fill="#D1FADF"/>
<path d="M29.6667 31C29.6667 29.837 29.6667 29.2555 29.5231 28.7824C29.2 27.717 28.3663 26.8834 27.301 26.5602C26.8278 26.4167 26.2463 26.4167 25.0833 26.4167H20.9167C19.7537 26.4167 19.1722 26.4167 18.6991 26.5602C17.6337 26.8834 16.8 27.717 16.4769 28.7824C16.3333 29.2555 16.3333 29.837 16.3333 31M26.75 19.75C26.75 21.8211 25.0711 23.5 23 23.5C20.9289 23.5 19.25 21.8211 19.25 19.75C19.25 17.6789 20.9289 16 23 16C25.0711 16 26.75 17.6789 26.75 19.75Z" stroke="#039855" stroke-width="1.3" stroke-linecap="round" stroke-linejoin="round"/>
<rect x="3" y="3.5" width="40" height="40" rx="20" stroke="#ECFDF3" stroke-width="6"/>
</svg>
