<svg width="46" height="47" viewBox="0 0 46 47" fill="none" xmlns="http://www.w3.org/2000/svg">
<rect x="3" y="3.5" width="40" height="40" rx="20" fill="#F4EBFF"/>
<path d="M29.6666 31C29.6666 29.837 29.6666 29.2555 29.5231 28.7824C29.1999 27.717 28.3662 26.8834 27.3009 26.5602C26.8277 26.4167 26.2462 26.4167 25.0832 26.4167H20.9166C19.7536 26.4167 19.1721 26.4167 18.699 26.5602C17.6336 26.8834 16.8 27.717 16.4768 28.7824C16.3333 29.2555 16.3333 29.837 16.3333 31M26.7499 19.75C26.7499 21.8211 25.071 23.5 22.9999 23.5C20.9289 23.5 19.2499 21.8211 19.2499 19.75C19.2499 17.6789 20.9289 16 22.9999 16C25.071 16 26.7499 17.6789 26.7499 19.75Z" stroke="#7F56D9" stroke-width="1.3" stroke-linecap="round" stroke-linejoin="round"/>
<rect x="3" y="3.5" width="40" height="40" rx="20" stroke="#F9F5FF" stroke-width="6"/>
</svg>
